<?xml version="1.0" encoding="UTF-8" standalone="no"?>
<svg
   id="Layer_2"
   data-name="Layer 2"
   width="47.38"
   height="47.38"
   viewBox="0 0 47.38 47.38"
   version="1.1"
   sodipodi:docname="x-pressed.svg"
   inkscape:version="1.2.2 (732a01da63, 2022-12-09)"
   xmlns:inkscape="http://www.inkscape.org/namespaces/inkscape"
   xmlns:sodipodi="http://sodipodi.sourceforge.net/DTD/sodipodi-0.dtd"
   xmlns="http://www.w3.org/2000/svg"
   xmlns:svg="http://www.w3.org/2000/svg">
  <sodipodi:namedview
     id="namedview23241"
     pagecolor="#ffffff"
     bordercolor="#000000"
     borderopacity="0.25"
     inkscape:showpageshadow="2"
     inkscape:pageopacity="0.0"
     inkscape:pagecheckerboard="0"
     inkscape:deskcolor="#d1d1d1"
     showgrid="false"
     inkscape:zoom="17.180244"
     inkscape:cx="21.390848"
     inkscape:cy="23.719104"
     inkscape:window-width="1920"
     inkscape:window-height="1001"
     inkscape:window-x="-9"
     inkscape:window-y="-9"
     inkscape:window-maximized="1"
     inkscape:current-layer="Layer_2" />
  <defs
     id="defs23230">
    <style
       id="style23228">
      .cls-1 {
        fill: #ff8e43;
      }

      .cls-1, .cls-2 {
        stroke-width: 0px;
      }

      .cls-2 {
        fill: #fff;
      }
    </style>
  </defs>
  <g
     id="Layer_1-2"
     data-name="Layer 1">
    <g
       id="g23237">
      <g
         id="X-2">
        <path
           class="cls-2"
           d="m23.68,0c13.08,0,23.69,10.6,23.7,23.68,0,13.08-10.6,23.69-23.68,23.7C10.62,47.39,0,36.78,0,23.7h0C0,10.61,10.6.01,23.68,0Z"
           id="path23232"
           style="fill:#4edefb;fill-opacity:1" />
      </g>
      <path
         class="cls-1"
         d="m 30.8,38.84 -6.41,-11 c -0.12,-0.25 -0.22,-0.51 -0.3,-0.77 -0.06,-0.26 -0.13,-0.51 -0.22,-0.76 h -0.09 c -0.11,0.28 -0.19,0.52 -0.27,0.78 -0.09,0.26 -0.2,0.51 -0.33,0.75 l -6.53,11 H 10.53 L 20.67,23.63 11.41,8.53 h 6.18 l 5.41,10 c 0.42,0.71 0.76,1.47 1,2.26 h 0.08 C 24.38,20 24.61,19.48 24.73,19.23 24.85,18.98 26.94,15.44 31,8.57 h 5.68 l -9.46,15 9.58,15.29 z"
         id="path23235"
         style="display:none" />
    </g>
  </g>
</svg>
