<?xml version="1.0" encoding="UTF-8"?>
<svg id="Layer_2" data-name="Layer 2" xmlns="http://www.w3.org/2000/svg" width="47.38" height="47.38" viewBox="0 0 47.38 47.38">
  <defs>
    <style>
      .cls-1 {
        fill: #141414;
      }

      .cls-1, .cls-2 {
        stroke-width: 0px;
      }

      .cls-2 {
        fill: #0071bc;
      }
    </style>
  </defs>
  <g id="Layer_1-2" data-name="Layer 1">
    <g>
      <g id="X">
        <path class="cls-1" d="m23.68,0c13.08,0,23.69,10.6,23.7,23.68,0,13.08-10.6,23.69-23.68,23.7C10.62,47.39,0,36.78,0,23.7h0C0,10.61,10.6.01,23.68,0Z"/>
      </g>
      <path class="cls-2" d="m30.8,38.83l-6.41-11c-.12-.24-.22-.5-.3-.76-.05-.26-.13-.51-.22-.76h-.09c-.11.27-.19.52-.27.77-.09.26-.2.51-.33.75l-6.53,11h-6.12l10.14-15.19-9.26-15.11h6.19l5.4,10c.42.71.76,1.48,1,2.27h.08c.3-.79.53-1.31.65-1.56s2.21-3.8,6.27-10.66h5.68l-9.46,15,9.58,15.28-6-.03Z"/>
    </g>
  </g>
</svg>