<?xml version="1.0" encoding="UTF-8"?>
<svg id="Layer_2" data-name="Layer 2" xmlns="http://www.w3.org/2000/svg" width="34.33" height="55.29" viewBox="0 0 34.33 55.29">
  <defs>
    <style>
      .cls-1 {
        fill: #edf4f4;
      }

      .cls-1, .cls-2, .cls-3, .cls-4, .cls-5 {
        stroke-width: 0px;
      }

      .cls-2 {
        fill: #e8e8e8;
      }

      .cls-3 {
        fill: #e3e3e3;
      }

      .cls-4 {
        fill: #ebebeb;
      }

      .cls-5 {
        fill: #f0f0f0;
      }
    </style>
  </defs>
  <g id="Layer_1-2" data-name="Layer 1">
    <g id="Down">
      <g>
        <path class="cls-4" d="m17.17,51.21c-7.14,0-12.75-1.32-13-3.08,0-.05,0-.09,0-.14V13.77L17.17.71l13.06,13.06v34.38c-.32,1.74-5.93,3.06-13.06,3.06Z"/>
        <path class="cls-1" d="m17.17,1.41l12.56,12.59v34s0,.04,0,.06c-.19,1.12-4.66,2.66-12.55,2.66s-12.37-1.55-12.57-2.66c0-.02,0-.05,0-.07V14L17.17,1.41m0-1.41L3.6,13.56v34.44h0c0,.08,0,.15,0,.23.41,2.33,7,3.49,13.54,3.49s13.14-1.16,13.55-3.49c0-.08,0-.15,0-.23V13.56L17.17,0Z"/>
      </g>
      <path class="cls-5" d="m30.73,48l2.75,2.77c.55-.82.85-1.78.85-2.77v-30.82l-3.6-3.62v34.44Z"/>
      <path class="cls-2" d="m30.71,48.22c-.41,2.33-7,3.49-13.54,3.49s-13.17-1.16-13.55-3.49c0-.08,0-.15,0-.23l-2.8,2.77c.93,1.36,2.74,2.7,6.17,3.52,3.34.72,6.76,1.06,10.18,1,3.42.06,6.83-.28,10.17-1,3.43-.82,5.24-2.16,6.14-3.52l-2.75-2.76c0,.07,0,.15-.02.22Z"/>
      <path class="cls-3" d="m3.6,48h0V13.56l-3.6,3.62v31.65l.09.24c.14.6.39,1.17.73,1.69l2.78-2.76Z"/>
    </g>
  </g>
</svg>