<?xml version="1.0" encoding="UTF-8"?>
<svg id="Layer_2" data-name="Layer 2" xmlns="http://www.w3.org/2000/svg" width="55.32" height="34.36" viewBox="0 0 55.32 34.36">
  <defs>
    <style>
      .cls-1 {
        fill: #d6d6d6;
      }

      .cls-1, .cls-2, .cls-3, .cls-4, .cls-5 {
        stroke-width: 0px;
      }

      .cls-2 {
        fill: #dbdbdb;
      }

      .cls-3 {
        fill: #edf4f4;
      }

      .cls-4 {
        fill: #e5e5e5;
      }

      .cls-5 {
        fill: #ebebeb;
      }
    </style>
  </defs>
  <g id="Layer_1-2" data-name="Layer 1">
    <g id="left">
      <g>
        <path class="cls-5" d="m7.34,30.24c-1.82,0-3.25-5.74-3.25-13.06s1.43-13.06,3.25-13.06h34.21l13.07,13.06-13.07,13.06H7.34Z"/>
        <path class="cls-3" d="m41.35,4.62l12.56,12.56-12.56,12.56H7.35c-1.15,0-2.75-4.78-2.75-12.56s1.59-12.56,2.74-12.56h34m.41-1H7.34c-5,0-5,27.12,0,27.12h34.42l13.56-13.57-13.56-13.55h0Z"/>
      </g>
      <path class="cls-2" d="m41.76,3.62l-3.6-3.62H7.34c-.99,0-1.96.29-2.78.84l2.78,2.78h34.42Z"/>
      <path class="cls-1" d="m7.34,3.62h0L4.56.85c-1.37.93-2.68,2.73-3.53,6.14C-.34,13.71-.34,20.65,1.03,27.37c.85,3.4,2.16,5.21,3.53,6.14l2.78-2.77c-4.99,0-4.99-27.12,0-27.12Z"/>
      <path class="cls-4" d="m7.34,30.74l-2.78,2.77c.82.55,1.79.84,2.78.85h30.82l3.6-3.62H7.34Z"/>
    </g>
  </g>
</svg>