<?xml version="1.0" encoding="UTF-8"?>
<svg id="Layer_2" data-name="Layer 2" xmlns="http://www.w3.org/2000/svg" width="55.32" height="34.36" viewBox="0 0 55.32 34.36">
  <defs>
    <style>
      .cls-1 {
        fill: #edf4f4;
      }

      .cls-1, .cls-2, .cls-3, .cls-4, .cls-5 {
        stroke-width: 0px;
      }

      .cls-2 {
        fill: #e8e8e8;
      }

      .cls-3 {
        fill: #ebebeb;
      }

      .cls-4 {
        fill: #f0f0f0;
      }

      .cls-5 {
        fill: #e6e6e6;
      }
    </style>
  </defs>
  <g id="Layer_1-2" data-name="Layer 1">
    <g id="Right">
      <g>
        <path class="cls-3" d="m13.77,30.24L.71,17.18,13.77,4.12h34.23c1.81,0,3.23,5.74,3.23,13.06s-1.44,13.06-3.23,13.06H13.77Z"/>
        <path class="cls-1" d="m48,4.62c1.14,0,2.73,4.78,2.73,12.56s-1.61,12.56-2.73,12.56H14L1.41,17.18,14,4.62h34m0-1H13.56L0,17.18l13.56,13.56h34.44c5,0,5-27.12,0-27.12Z"/>
      </g>
      <path class="cls-5" d="m48,3.62l2.76-2.77c-.82-.55-1.78-.84-2.76-.85h-30.83l-3.61,3.68,34.44-.06Z"/>
      <path class="cls-2" d="m48,30.74H13.56l3.6,3.62h32.32l.34-.35c.32-.13.63-.3.92-.5l-2.74-2.77Z"/>
      <path class="cls-4" d="m50.74.85l-2.74,2.77c5,0,5,27.12,0,27.12l2.76,2.77c1.37-.93,2.71-2.74,3.55-6.14.71-3.35,1.05-6.77,1-10.19.05-3.42-.28-6.84-1-10.19-.86-3.4-2.2-5.21-3.57-6.14Z"/>
    </g>
  </g>
</svg>