<?xml version="1.0" encoding="UTF-8" standalone="no"?>
<svg
   id="Layer_1"
   data-name="Layer 1"
   width="168.77"
   height="83.38"
   viewBox="0 0 168.77 83.38"
   version="1.1"
   sodipodi:docname="stick.svg"
   inkscape:version="1.2.2 (732a01da63, 2022-12-09)"
   xmlns:inkscape="http://www.inkscape.org/namespaces/inkscape"
   xmlns:sodipodi="http://sodipodi.sourceforge.net/DTD/sodipodi-0.dtd"
   xmlns="http://www.w3.org/2000/svg"
   xmlns:svg="http://www.w3.org/2000/svg">
  <sodipodi:namedview
     id="namedview53856"
     pagecolor="#ffffff"
     bordercolor="#000000"
     borderopacity="0.25"
     inkscape:showpageshadow="2"
     inkscape:pageopacity="0.0"
     inkscape:pagecheckerboard="0"
     inkscape:deskcolor="#d1d1d1"
     showgrid="false"
     inkscape:zoom="8.9767136"
     inkscape:cx="69.791688"
     inkscape:cy="41.830453"
     inkscape:window-width="1920"
     inkscape:window-height="1001"
     inkscape:window-x="-9"
     inkscape:window-y="-9"
     inkscape:window-maximized="1"
     inkscape:current-layer="Layer_1" />
  <defs
     id="defs53814">
    <style
       id="style53812">
      .cls-1 {
        fill: #1a1a1a;
      }

      .cls-2 {
        fill: #404040;
      }

      .cls-3 {
        fill: #262626;
      }

      .cls-4 {
        opacity: 0.06;
      }

      .cls-5 {
        fill: #fff;
      }

      .cls-6 {
        fill: #212121;
      }

      .cls-7 {
        fill: #e5e5e5;
      }

      .cls-8 {
        fill: #bfbfbf;
      }

      .cls-9 {
        fill: #d9d9d9;
      }

      .cls-10 {
        fill: #dedede;
      }
    </style>
  </defs>
  <g
     id="g53834">
    <g
       id="g53820">
      <path
         class="cls-1"
         d="M168.77,41.7A41.69,41.69,0,1,1,127.07,0,41.68,41.68,0,0,1,168.77,41.7Z"
         id="path53816"
         style="fill:#f79494;fill-opacity:1" />
      <path
         class="cls-2"
         d="m 127.07,0 h -1.26 -0.75 l 1,20 q 0.52,0 1,0 V 0 Z m -4,0.19 h -0.16 -0.15 c -0.56,0.06 -1.12,0.13 -1.67,0.21 l 2.84,19.79 c 0.35,0 0.69,-0.09 1,-0.12 z m -3.95,0.57 h -0.09 -0.43 c -0.48,0.1 -1,0.2 -1.44,0.32 l 4.74,19.43 c 0.33,-0.08 0.67,-0.16 1,-0.22 z m -3.89,1 -0.8,0.24 v 0 h -0.06 v 0 h -0.06 v 0 0 l -0.93,0.31 6.59,18.88 c 0.32,-0.11 0.65,-0.22 1,-0.31 L 115.23,1.71 Z M 111.46,3 c -0.62,0.25 -1.23,0.52 -1.84,0.8 L 118,22 c 0.32,-0.15 0.63,-0.29 1,-0.42 z m -3.63,1.7 c -0.59,0.31 -1.18,0.63 -1.75,1 l 10.09,17.28 c 0.29,-0.18 0.6,-0.35 0.9,-0.51 z m -3.45,2 c -0.56,0.36 -1.11,0.73 -1.66,1.13 l 11.7,16.22 0.86,-0.59 -10.9,-16.74 z m -3.25,2.33 q -0.78,0.63 -1.53,1.29 l 13.18,15 c 0.27,-0.23 0.53,-0.45 0.81,-0.67 L 101.13,9.05 Z m -3,2.64 -0.84,0.84 v 0 0 0 0 0 0 0 l -0.43,0.45 14.56,13.71 c 0.24,-0.25 0.49,-0.5 0.74,-0.74 L 98.12,11.69 Z m -2.75,2.93 v 0 0 0 0 0 0 0 c -0.38,0.45 -0.74,0.9 -1.1,1.36 v 0 l 15.8,12.26 c 0.21,-0.27 0.44,-0.54 0.66,-0.81 l -15.2,-13 z m -2.45,3.16 -0.15,0.23 v 0 0 0 c -0.32,0.46 -0.63,0.92 -0.93,1.39 l 16.9,10.7 c 0.19,-0.29 0.38,-0.59 0.58,-0.87 z m -2.14,3.38 -0.45,0.81 v 0 c -0.17,0.31 -0.33,0.62 -0.49,0.93 l 17.85,9 c 0.15,-0.31 0.32,-0.62 0.49,-0.92 L 90.79,21.09 Z M 89,24.71 88.8,25.16 v 0 0.06 0 0.06 0 c -0.18,0.42 -0.35,0.84 -0.52,1.27 l 18.63,7.26 c 0.13,-0.32 0.26,-0.64 0.4,-1 z m -1.45,3.72 c -0.09,0.27 -0.18,0.54 -0.26,0.81 v 0 0 0 0 0 0 0 0 0 0 0 0 0 0 0 0 0 0 0 0 0 0 0 0 0 0 0 0 0 0 0 c 0,0 0,0 0,0 v 0 0 0 0 0 c -0.06,0.18 -0.11,0.36 -0.16,0.55 l 19.24,5.43 c 0.1,-0.33 0.2,-0.66 0.31,-1 l -19,-6.35 z m -1.09,3.85 q -0.18,0.8 -0.33,1.59 c 0,0.13 -0.05,0.25 -0.07,0.37 l 19.68,3.55 c 0.06,-0.34 0.13,-0.68 0.21,-1 l -19.49,-4.5 z m -0.71,3.94 -0.15,1.28 v 0 0 0 0 0 0 0 l -0.06,0.59 19.93,1.66 c 0,-0.35 0.07,-0.7 0.12,-1 l -19.84,-2.6 z m -0.33,4 c 0,0.32 0,0.64 0,1 v 0 0 0 0.06 0 0.24 0 0 0 0 0 0 0 0 0 0 0 0 0 0.4 l 20,-0.23 v 0.01 c 0,-0.26 0,-0.53 0,-0.79 l -20,-0.71 z m 20,2.82 -20,1.18 c 0,0.57 0.08,1.14 0.13,1.7 v 0 0 0 0 0 0 0 c 0,0.06 0,0.12 0,0.18 l 19.89,-2.13 c 0,-0.34 -0.07,-0.69 -0.09,-1 z m 0.23,2.08 -19.76,3.06 v 0 0 0 0 0 0 c 0.09,0.53 0.18,1.05 0.28,1.57 v 0 0 0 0 0 0 0 c 0,0.05 0,0.11 0,0.17 l 19.59,-4 q -0.1,-0.51 -0.18,-1 z m 0.41,2 -19.37,5 c 0.17,0.65 0.35,1.29 0.54,1.93 l 19.11,-5.9 c -0.1,-0.33 -0.19,-0.67 -0.28,-1 z m 0.61,2 -18.8,6.81 c 0.23,0.63 0.47,1.25 0.73,1.87 l 18.45,-7.72 c -0.13,-0.32 -0.26,-0.64 -0.38,-1 z m 0.8,1.9 -18.06,8.58 c 0,0.07 0.07,0.15 0.11,0.22 v 0 0 0 c 0.17,0.37 0.36,0.73 0.55,1.1 v 0 0 0 0 0 0 0 l 0.17,0.32 17.63,-9.45 c -0.16,-0.31 -0.32,-0.62 -0.47,-0.93 z m 1,1.83 -17.17,10.27 0.3,0.48 v 0 0 0 0 0 c 0.24,0.38 0.49,0.77 0.74,1.14 L 109,53.71 c -0.19,-0.29 -0.38,-0.58 -0.56,-0.88 z m 1.16,1.73 -16.11,11.87 0.23,0.3 v 0 0 0 0 0 0 0 0 0 0 0 0 0 0 0 0 0 0 0 0 0 0 0 0 0 0 0 c 0.23,0.3 0.47,0.6 0.71,0.89 L 109.96,55 c -0.22,-0.27 -0.44,-0.55 -0.64,-0.83 z m 1.32,1.62 -14.9,13.35 c 0.45,0.49 0.9,1 1.37,1.45 l 14.23,-14.06 c -0.25,-0.24 -0.49,-0.5 -0.72,-0.76 z m 1.47,1.49 -13.56,14.7 0.76,0.68 h 0.06 v 0 0 l 0.67,0.57 12.82,-15.35 c -0.27,-0.22 -0.54,-0.46 -0.79,-0.69 z M 114,59 l -12.07,16 0.93,0.68 0.69,0.48 11.3,-16.5 z m 1.72,1.18 -10.49,17 0.1,0.07 v 0 0 0 c 0.5,0.3 1,0.6 1.52,0.88 v 0 l 9.66,-17.51 -0.9,-0.52 z m 1.82,1 -8.81,18 0.34,0.17 h 0.16 v 0 0 c 0.42,0.2 0.84,0.39 1.27,0.57 l 7.93,-18.36 c -0.31,-0.13 -0.63,-0.28 -0.94,-0.43 z m 1.9,0.82 -7,18.72 c 0.63,0.24 1.25,0.45 1.89,0.66 l 6.13,-19 -1,-0.34 z m 2,0.63 -5.23,19.37 0.24,0.06 h 0.2 q 0.75,0.2 1.5,0.36 l 4.26,-19.55 c -0.34,-0.07 -0.67,-0.15 -1,-0.24 z m 2,0.44 -3.31,19.73 c 0.5,0.08 1,0.16 1.51,0.22 l 0.47,0.06 2.36,-19.86 c -0.35,0 -0.69,-0.09 -1,-0.15 z m 2.07,0.25 -1.41,20 h 0.4 0.09 1 0.54 l 0.47,-20 c -0.35,0 -0.71,0 -1,0 z m 3.16,0 -1,0.05 0.47,20 h 0.57 0.12 l 1.19,-0.06 h 0.12 l -1.42,-20 z m 2.07,-0.25 c -0.34,0.06 -0.69,0.11 -1,0.15 l 2.37,19.86 c 0.62,-0.08 1.23,-0.16 1.83,-0.26 h 0.15 l -3.32,-19.73 z m 2,-0.44 c -0.33,0.09 -0.67,0.17 -1,0.24 L 136,82.42 h 0.22 0.2 l 0.76,-0.18 h 0.36 L 138,82 132.8,62.68 Z m 2,-0.63 -1,0.34 6.14,19 0.92,-0.31 h 0.2 l 0.77,-0.29 -7,-18.71 z m 1.9,-0.83 -0.94,0.44 7.92,18.39 c 0.35,-0.15 0.7,-0.3 1,-0.47 h 0.16 l 0.61,-0.29 -8.81,-18 z m 1.82,-1 c -0.3,0.18 -0.6,0.36 -0.9,0.52 l 9.67,17.51 0.18,-0.1 v 0 0 h 0.1 v 0 0 c 0.47,-0.26 0.92,-0.53 1.37,-0.8 l -10.49,-17 z m 1.7,-1.17 c -0.28,0.21 -0.56,0.42 -0.85,0.61 l 11.3,16.5 c 0.25,-0.17 0.51,-0.35 0.75,-0.53 v 0 0 0 0 0 0 h 0.15 v 0 0 l 0.6,-0.45 z m 1.6,-1.34 c -0.25,0.24 -0.52,0.47 -0.78,0.69 L 153.8,73.7 h 0.34 v 0 0 0 0 c 0.34,-0.28 0.66,-0.57 1,-0.86 h 0.06 v 0 0 0 0 z m 1.47,-1.49 c -0.23,0.26 -0.47,0.52 -0.72,0.77 l 14.23,14 v 0 0 0 c 0.31,-0.32 0.62,-0.64 0.92,-1 v 0 0 0 0 0 0 0 l 0.32,-0.35 z m 1.32,-1.61 c -0.2,0.27 -0.42,0.55 -0.64,0.82 L 159.41,68 v 0 0 0 0 0 0 0 0 0 0 0 c 0.2,-0.26 0.41,-0.52 0.61,-0.79 v 0 0 0 0 0 0 0 0 l 0.36,-0.47 z m 1.16,-1.74 c -0.18,0.3 -0.37,0.59 -0.56,0.88 l 16.64,11.1 0.14,-0.21 v 0 0 c 0.31,-0.47 0.61,-0.95 0.9,-1.43 v 0 0 0 z m 1,-1.83 c -0.15,0.32 -0.31,0.63 -0.47,0.93 l 17.63,9.45 0.27,-0.51 c 0.14,-0.28 0.28,-0.55 0.41,-0.83 v 0 0 0 0 0 0 0 c 0,-0.11 0.1,-0.22 0.16,-0.33 L 146.69,51 Z m 0.8,-1.9 c -0.12,0.32 -0.25,0.64 -0.38,1 l 18.45,7.71 0.29,-0.69 v 0 0 0 0 0 0 0 c 0.14,-0.36 0.27,-0.71 0.4,-1.06 l -18.8,-6.81 z m 0.6,-2 c -0.08,0.33 -0.18,0.67 -0.28,1 l 19.1,5.91 0.12,-0.41 v 0 0 0 0 0 0 0 0 0 0 0 0 0 0 0 0 0 0 0 0 l 0.33,-1.21 -19.38,-5 z m 0.42,-2 c 0,0.34 -0.12,0.68 -0.18,1 l 19.59,4 c 0.11,-0.57 0.22,-1.15 0.31,-1.72 0,-0.09 0,-0.17 0,-0.25 l -19.76,-3.07 z m 0.22,-2.08 c 0,0.35 0,0.7 -0.08,1 l 19.88,2.13 c 0,-0.24 0.05,-0.47 0.07,-0.71 v 0 0 0 0 0 0 c 0,-0.38 0.06,-0.76 0.08,-1.14 v -0.06 l -20,-1.18 z m 20,-2.82 -20,0.71 c 0,0.27 0,0.53 0,0.8 V 42 l 20,0.23 v -0.43 0 0 0 0 0 0 0 -0.09 0 0 0 -0.17 0 0 0 -0.34 0 0 0 c 0,-0.15 0,-0.29 0,-0.44 v 0 -0.09 0 -0.15 0 c 0,-0.09 0,-0.18 0,-0.27 z m -0.33,-4 -19.83,2.61 c 0,0.34 0.08,0.69 0.11,1 l 19.93,-1.66 c 0,-0.16 0,-0.31 0,-0.47 v 0 0 0 0 0 0 0 0 0 c 0,-0.46 -0.1,-0.92 -0.16,-1.37 z m -0.71,-3.93 -19.49,4.5 c 0.08,0.33 0.15,0.68 0.21,1 l 19.68,-3.56 -0.18,-0.95 v 0 0 0 0 0 0 0 0 0 0 0 0 0 0 0 0 0 0 0 0 0 0 0 l -0.06,-0.32 v 0 -0.06 0 0 0 l -0.06,-0.24 z m -1.09,-3.85 -19,6.36 q 0.16,0.49 0.3,1 l 19.25,-5.44 v 0 0 0 0 0 0 0 c -0.14,-0.49 -0.29,-1 -0.45,-1.46 v 0 0 0 c 0,-0.1 -0.07,-0.19 -0.1,-0.29 z m -1.45,-3.73 -18.27,8.17 c 0.14,0.32 0.27,0.64 0.4,1 l 18.63,-7.27 c -0.24,-0.62 -0.5,-1.24 -0.77,-1.85 z M 163.36,21.11 146,31 c 0.17,0.3 0.34,0.61 0.49,0.92 l 17.85,-9 c -0.27,-0.52 -0.54,-1 -0.83,-1.55 v 0 0 0 0 0 0 0 0 0 0 0 0 0 0 0 z m -2.14,-3.37 -16.36,11.5 c 0.2,0.28 0.39,0.57 0.58,0.86 l 16.89,-10.7 -0.13,-0.2 v 0 0 0 l -0.66,-1 v 0 0 0 l -0.27,-0.38 z m -2.45,-3.16 -15.19,13 q 0.33,0.39 0.66,0.81 L 160,16.14 159.89,15.99 v 0 0 0 0 0 0 0 0 0 0 0 0 0 0 0 0 0 0 0 0 0 0 0 0 0 0 0 0 0 0 0 0 0 0 0 0 0 0 0 0 0 0 0 0 0 0 0 0 0 0 0 0 0 0 0 0 0 0 0 0 0 0 0 0 0 0 0 0 0 0 0 0 0 0 0 0 0 0 0 0 0 0 0 l -0.13,-0.15 z m -2.77,-2.9 -13.89,14.4 0.74,0.74 14.57,-13.72 v 0 c -0.46,-0.49 -0.92,-1 -1.4,-1.42 z M 153,9 140.56,24.7 c 0.27,0.21 0.54,0.44 0.8,0.67 l 13.18,-15 -0.23,-0.21 v 0 0 0 z m -3.25,-2.33 -10.88,16.81 c 0.29,0.19 0.58,0.38 0.86,0.59 L 151.42,7.84 151,7.51 h -0.06 l -0.51,-0.36 h -0.08 L 149.8,6.79 Z m -3.45,-2 -9.24,17.74 c 0.31,0.16 0.61,0.33 0.91,0.5 L 148.06,5.66 147.63,5.41 v 0 h -0.06 v 0 0 0 c -0.4,-0.23 -0.8,-0.44 -1.21,-0.66 z M 142.68,3 l -7.49,18.54 0.95,0.41 8.38,-18.16 h -0.32 c -0.5,-0.23 -1,-0.44 -1.52,-0.65 z m -3.78,-1.3 -5.66,19.18 1,0.32 6.59,-18.89 -1.34,-0.44 h -0.15 l -0.42,-0.13 z m -3.9,-0.94 -3.79,19.63 1,0.22 L 137,1.18 h -0.23 l -0.82,-0.19 h -0.23 c -0.23,-0.06 -0.45,-0.1 -0.67,-0.14 z m -4,-0.57 -1.83,19.91 c 0.35,0 0.7,0.07 1,0.12 l 2.88,-19.8 -0.5,-0.06 h -0.21 l -0.9,-0.1 h -0.11 -0.27 z M 127,0 v 20 h 1.06 L 129,0 c -0.41,0 -0.81,0 -1.22,0 z"
         id="path53818"
         style="fill:#f7a394;fill-opacity:1" />
    </g>
    <path
       class="cls-3"
       d="M127.07,2A39.69,39.69,0,1,1,87.39,41.7,39.75,39.75,0,0,1,127.07,2m0-2a41.69,41.69,0,1,0,41.7,41.7A41.69,41.69,0,0,0,127.07,0Z"
       id="path53822"
       style="fill:#f79494;fill-opacity:1" />
    <g
       class="cls-4"
       id="g53826" />
    <g
       id="g53832">
      <path
         class="cls-6"
         d="M127.07,69.83A28.13,28.13,0,1,1,155.2,41.7,28.15,28.15,0,0,1,127.07,69.83Z"
         id="path53828"
         style="fill:#f7a394;fill-opacity:1" />
      <path
         class="cls-1"
         d="M127.07,16.58A25.13,25.13,0,1,1,102,41.7a25.15,25.15,0,0,1,25.12-25.12m0-6A31.13,31.13,0,1,0,158.2,41.7a31.12,31.12,0,0,0-31.13-31.12Z"
         id="path53830"
         style="fill:#f79494;fill-opacity:1" />
    </g>
  </g>
  <g
     id="LS_pressed"
     data-name="LS pressed">
    <g
       id="g53840">
      <path
         class="cls-7"
         d="M83.39,41.7A41.7,41.7,0,1,1,41.69,0,41.69,41.69,0,0,1,83.39,41.7Z"
         id="path53836"
         style="fill:#f79494;fill-opacity:1" />
      <path
         class="cls-8"
         d="m 41.69,0 h -1.26 -0.75 l 0.94,20 h 1.07 z m -4,0.19 H 37.52 37.38 C 36.82,0.25 36.26,0.32 35.71,0.4 l 2.84,19.79 c 0.34,0 0.69,-0.09 1,-0.12 z m -4,0.57 H 33.6 33.18 c -0.48,0.1 -1,0.2 -1.44,0.32 l 4.73,19.43 c 0.34,-0.08 0.68,-0.16 1,-0.22 L 33.73,0.76 Z m -3.88,1 L 29.01,2 V 2 H 29 V 2 H 28.95 V 2 H 28.9 l -0.93,0.31 6.6,18.88 c 0.32,-0.11 0.65,-0.22 1,-0.31 L 29.85,1.71 Z M 26.07,3 C 25.45,3.25 24.84,3.52 24.24,3.8 L 32.62,22 c 0.31,-0.15 0.63,-0.29 1,-0.42 z m -3.63,1.7 c -0.59,0.31 -1.17,0.63 -1.75,1 l 10.09,17.24 c 0.3,-0.18 0.6,-0.35 0.91,-0.51 z M 19,6.72 C 18.44,7.08 17.89,7.45 17.35,7.85 L 29,24.07 c 0.29,-0.2 0.57,-0.4 0.87,-0.59 z m -3.25,2.33 c -0.53,0.42 -1,0.85 -1.54,1.29 l 13.19,15 c 0.26,-0.23 0.53,-0.45 0.8,-0.67 z m -3,2.64 c -0.29,0.27 -0.56,0.55 -0.84,0.84 v 0 0 0 0 0 0 0 l -0.43,0.45 14.42,13.84 c 0.23,-0.25 0.48,-0.5 0.73,-0.74 L 12.74,11.69 Z M 10,14.6 v 0 0 0 0 H 9.87 v 0 0 c -0.38,0.45 -0.75,0.9 -1.1,1.36 v 0 l 15.8,12.26 q 0.32,-0.4 0.66,-0.81 z M 7.55,17.76 7.39,18 v 0 0 0 c -0.32,0.46 -0.62,0.92 -0.92,1.39 l 16.9,10.7 c 0.18,-0.29 0.38,-0.59 0.58,-0.87 z M 5.41,21.14 5,22 v 0 l -0.49,0.93 17.85,9 c 0.16,-0.31 0.32,-0.62 0.5,-0.92 z m -1.8,3.57 c -0.07,0.15 -0.14,0.3 -0.2,0.45 v 0 0.06 0 a 0.14,0.14 0 0 0 0,0.06 v 0 C 3.23,25.7 3.05,26.12 2.89,26.55 l 18.63,7.26 c 0.13,-0.32 0.26,-0.64 0.4,-1 z M 2.15,28.43 C 2.06,28.7 1.98,28.97 1.89,29.24 v 0 0 0 0 0 0 0 0 0 0 0 0 0 0 0 0 0 0 0 0 0 0 0 0 0 0 0 0 0 0 0 c 0,0 0,0 0,0 v 0 0 0 0 0 C 1.83,29.42 1.78,29.6 1.73,29.79 l 19.25,5.43 q 0.13,-0.5 0.3,-1 l -19,-6.35 z M 1.07,32.28 C 1,32.81 0.83,33.34 0.73,33.87 c 0,0.13 0,0.25 -0.07,0.37 l 19.69,3.55 c 0.06,-0.34 0.13,-0.68 0.2,-1 z M 0.36,36.22 C 0.3,36.64 0.25,37.07 0.21,37.5 v 0 0 0 0 0 0 0 c 0,0.2 0,0.39 -0.05,0.59 l 19.93,1.66 c 0,-0.35 0.07,-0.7 0.11,-1 z M 0,40.2 v 1 0 0 0 0.06 0 0.24 0 0 0 0 0 0 0 0 0 0 0 0 0 c 0,0.13 0,0.27 0,0.4 L 20,42 v -0.3 c 0,-0.26 0,-0.53 0,-0.79 z M 20,43 0.07,44.2 c 0,0.57 0.08,1.14 0.14,1.7 v 0 0 0 0 0 0 0 a 1.1,1.1 0 0 0 0,0.18 l 19.88,-2.13 c 0,-0.34 -0.06,-0.69 -0.08,-1 z m 0.22,2.08 -19.72,3.09 v 0 0 0 0 0 0 c 0.08,0.53 0.17,1.05 0.28,1.57 v 0 0 0 0 0 0 0 0.16 l 19.59,-4 c -0.06,-0.34 -0.13,-0.68 -0.18,-1 z m 0.42,2 -19.37,5 c 0.16,0.65 0.34,1.29 0.54,1.93 L 21,48.12 c -0.1,-0.33 -0.2,-0.67 -0.28,-1 z m 0.61,2 -18.77,6.83 c 0.23,0.63 0.47,1.25 0.73,1.87 l 18.45,-7.72 c -0.13,-0.32 -0.26,-0.64 -0.37,-1 z m 0.79,1.9 L 4,59.6 4.1,59.82 v 0 0 0 c 0.18,0.37 0.36,0.73 0.55,1.1 v 0 0 0 0 0 0 0 c 0,0.11 0.11,0.22 0.17,0.33 l 17.62,-9.46 c -0.16,-0.31 -0.32,-0.62 -0.47,-0.93 z m 1,1.83 -17.12,10.31 0.29,0.48 v 0 0 0 0 0 c 0.24,0.38 0.49,0.77 0.74,1.14 L 23.58,53.64 C 23.39,53.35 23.2,53.06 23.03,52.76 Z m 1.15,1.73 -16.05,11.91 0.22,0.3 v 0 0 0 0 0 0 0 0 0 0 0 0 0 0 0 0 0 0 0 0 0 0 0 0 0 0 0 c 0.23,0.3 0.46,0.6 0.7,0.89 L 24.56,55 c -0.22,-0.27 -0.43,-0.55 -0.64,-0.83 z m 1.32,1.62 -14.84,13.39 c 0.44,0.49 0.9,1 1.37,1.45 L 26.26,56.94 C 26.02,56.7 25.77,56.44 25.54,56.18 Z M 27,57.67 13.48,72.39 c 0.25,0.23 0.5,0.46 0.76,0.68 h 0.06 v 0 0 L 14.96,73.64 27.8,58.36 C 27.53,58.14 27.27,57.9 27.01,57.67 Z M 28.62,59 16.55,75 c 0.3,0.23 0.61,0.46 0.93,0.68 l 0.69,0.48 11.29,-16.5 c -0.28,-0.2 -0.57,-0.4 -0.84,-0.61 z m 1.72,1.18 -10.49,17 0.1,0.07 v 0 0 0 c 0.5,0.3 1,0.6 1.52,0.88 v 0 l 9.67,-17.51 c -0.31,-0.17 -0.61,-0.34 -0.9,-0.52 z m 1.82,1 -8.81,18 0.33,0.17 h 0.16 v 0 0 q 0.63,0.3 1.26,0.57 l 8,-18.3 C 32.78,61.49 32.46,61.34 32.16,61.19 Z M 34.06,62 27,80.73 c 0.62,0.24 1.25,0.45 1.89,0.66 l 6.12,-19 -1,-0.34 z m 2,0.63 -5.24,19.37 0.24,0.06 h 0.21 q 0.74,0.2 1.5,0.36 L 37,62.88 c -0.34,-0.07 -0.68,-0.15 -1,-0.24 z m 2,0.44 -3.33,19.74 c 0.5,0.08 1,0.16 1.51,0.22 l 0.47,0.06 2.36,-19.86 c -0.34,0 -0.69,-0.09 -1,-0.15 z m 2.07,0.25 -1.41,20 h 0.41 0.09 1 0.54 l 0.46,-20 c -0.35,0 -0.7,0 -1,0 z m 3.16,0 -1.05,0.05 0.48,20 h 0.56 0.13 l 1.18,-0.06 h 0.13 l -1.43,-20 z m 2.08,-0.25 c -0.34,0.06 -0.69,0.11 -1,0.15 l 2.37,19.86 c 0.61,-0.08 1.22,-0.16 1.83,-0.26 h 0.15 L 45.35,63.08 Z m 2,-0.44 c -0.33,0.09 -0.67,0.17 -1,0.24 l 4.27,19.54 h 0.22 0.21 l 0.76,-0.18 h 0.36 l 0.39,-0.1 -5.2,-19.32 z m 2,-0.63 -1,0.34 6.13,19 0.92,-0.31 h 0.19 L 56.39,80.74 49.33,62 Z m 1.91,-0.83 -1,0.44 7.95,18.39 c 0.35,-0.15 0.7,-0.3 1.05,-0.47 h 0.15 l 0.62,-0.29 -8.81,-18 z m 1.81,-1 c -0.29,0.18 -0.59,0.36 -0.89,0.52 l 9.66,17.51 0.18,-0.1 v 0 0 h 0.1 v 0 0 l 1.37,-0.8 -10.5,-17 z M 54.77,59 c -0.27,0.21 -0.56,0.42 -0.84,0.61 l 11.3,16.5 0.75,-0.53 v 0 0 0 0 0 0 h 0.14 v 0 0 l 0.6,-0.45 z m 1.61,-1.34 c -0.26,0.24 -0.52,0.47 -0.79,0.69 L 68.41,73.7 h 0.34 v 0 0 0 0 l 1,-0.86 v 0 0 0 0 0 z m 1.47,-1.49 c -0.23,0.26 -0.48,0.52 -0.72,0.77 L 71.36,71 v 0 0 0 l 0.93,-1 v 0 0 0 0 0 0 0 c 0.1,-0.12 0.21,-0.24 0.32,-0.35 z m 1.32,-1.61 c -0.21,0.27 -0.42,0.55 -0.64,0.82 L 74,68 v 0 0 0 0 0 0 0 0 0 0 0 c 0.21,-0.26 0.42,-0.52 0.62,-0.79 v 0 0 0 0 0 0 0 0 c 0.11,-0.16 0.23,-0.31 0.35,-0.47 z m 1.15,-1.74 c -0.17,0.3 -0.36,0.59 -0.55,0.88 l 16.63,11.1 0.14,-0.21 v 0 0 c 0.31,-0.47 0.61,-0.95 0.9,-1.43 v 0 0 0 z m 1,-1.83 c -0.14,0.32 -0.3,0.63 -0.46,0.93 l 17.62,9.45 0.27,-0.51 0.42,-0.83 v 0 0 0 0 0 0 0 c 0.06,-0.11 0.11,-0.22 0.16,-0.33 L 61.3,51 Z m 0.8,-1.9 c -0.12,0.32 -0.24,0.64 -0.37,1 L 80.2,57.8 c 0.1,-0.23 0.19,-0.46 0.28,-0.69 v 0 0 0 0 0 0 0 c 0.13,-0.36 0.27,-0.71 0.4,-1.06 L 62.1,49.09 Z m 0.61,-2 c -0.09,0.33 -0.18,0.67 -0.28,1 L 81.54,54 c 0,-0.14 0.08,-0.27 0.13,-0.41 v 0 0 0 0 0 0 0 0 0 0 0 0 0 0 0 0 0 0 0 0 c 0.12,-0.4 0.23,-0.81 0.33,-1.21 l -19.37,-5 z m 0.41,-2 q -0.07,0.51 -0.18,1 l 19.59,4 c 0.12,-0.57 0.22,-1.15 0.32,-1.72 a 1.87,1.87 0 0 1 0,-0.25 L 63.12,45.09 Z M 63.35,43 c 0,0.35 -0.05,0.7 -0.09,1 l 19.89,2.13 c 0,-0.24 0,-0.47 0.07,-0.71 v 0 0 0 0 0 0 c 0,-0.38 0.06,-0.76 0.09,-1.14 v -0.06 z m 20,-2.82 -20,0.71 c 0,0.27 0,0.53 0,0.8 V 42 l 20,0.23 v -0.43 0 0 0 0 0 0 0 -0.09 0 0 0 -0.17 0 0 0 -0.34 0 0 0 c 0,-0.15 0,-0.29 0,-0.44 v 0 -0.09 0 -0.15 0 a 2.44,2.44 0 0 1 0,-0.27 z m -0.33,-4 -19.82,2.63 c 0,0.34 0.08,0.69 0.11,1 l 19.93,-1.66 c 0,-0.16 0,-0.31 0,-0.47 v 0 0 0 0 0 0 0 0 0 c 0,-0.46 -0.1,-0.92 -0.15,-1.37 z m -0.72,-3.93 -19.48,4.5 0.21,1 19.68,-3.56 c -0.06,-0.31 -0.12,-0.63 -0.19,-0.95 v 0 0 0 0 0 0 0 0 0 0 0 0 0 0 0 0 0 0 0 0 0 0 0 l -0.07,-0.32 v 0 -0.06 0 0 0 l -0.06,-0.24 z m -1.08,-3.85 -19,6.36 q 0.16,0.49 0.3,1 l 19.25,-5.44 v 0 0 0 0 0 0 0 c -0.14,-0.49 -0.29,-1 -0.45,-1.46 v 0 0 0 c 0,-0.1 -0.07,-0.19 -0.1,-0.29 z m -1.46,-3.73 -18.25,8.18 c 0.14,0.32 0.28,0.64 0.4,1 L 80.54,26.58 C 80.3,25.96 80.04,25.34 79.77,24.73 Z M 78,21.12 60.58,31 c 0.17,0.3 0.33,0.61 0.49,0.92 l 17.84,-9 c -0.26,-0.52 -0.54,-1 -0.82,-1.55 v 0 0 0 0 0 0 0 0 0 0 0 0 0 0 0 z m -2.14,-3.37 -16.4,11.5 c 0.2,0.28 0.4,0.57 0.58,0.86 l 16.9,-10.7 -0.13,-0.2 v 0 0 0 c -0.21,-0.33 -0.43,-0.66 -0.65,-1 v 0 0 0 L 75.9,17.83 Z m -2.45,-3.16 -15.2,13 q 0.34,0.39 0.66,0.81 L 74.67,16.13 74.52,16 v 0 0 0 0 0 0 0 0 0 0 0 0 0 0 0 0 0 0 0 0 0 0 0 0 0 0 0 0 0 0 0 0 0 0 0 0 0 0 0 0 0 0 0 0 0 0 0 0 0 0 0 0 0 0 0 0 0 0 0 0 0 0 0 0 0 0 0 0 0 0 0 0 0 0 0 0 0 0 0 L 74.4,15.85 Z m -2.75,-2.91 -13.91,14.4 c 0.25,0.24 0.5,0.49 0.73,0.74 L 72,13.1 v 0 c -0.46,-0.49 -0.93,-1 -1.41,-1.42 z M 67.62,9 55.17,24.7 c 0.28,0.21 0.55,0.44 0.81,0.67 l 13.18,-15 -0.23,-0.21 v 0 0 0 C 68.52,9.81 68.1,9.46 67.67,9.16 Z M 64.38,6.71 53.48,23.48 c 0.29,0.19 0.58,0.38 0.86,0.59 L 66,7.84 65.54,7.51 v 0 L 65,7.12 v 0 0 0 0 0 L 64.45,6.76 Z m -3.45,-2 -9.24,17.72 0.91,0.5 L 62.68,5.66 62.24,5.41 v 0 h -0.05 v 0 0 0 C 61.79,5.18 61.38,4.97 60.98,4.75 Z M 57.29,3 49.81,21.56 50.76,21.97 59.13,3.81 h -0.31 c -0.5,-0.23 -1,-0.44 -1.53,-0.65 z m -3.77,-1.3 -5.66,19.18 1,0.32 L 55.42,2.31 54.09,1.87 H 53.94 L 53.52,1.74 Z m -3.89,-0.94 -3.78,19.63 1,0.22 4.74,-19.43 H 51.36 L 50.54,0.94 H 50.3 Z m -4,-0.57 -1.84,19.91 c 0.34,0 0.69,0.07 1,0.12 L 47.66,0.42 47.16,0.36 H 47 L 46.1,0.26 H 46 45.73 Z M 41.63,0 v 20 h 1.05 L 43.62,0 c -0.4,0 -0.81,0 -1.21,0 z"
         id="path53838"
         style="fill:#f7a4a4;fill-opacity:1" />
    </g>
    <path
       class="cls-9"
       d="M41.69,2A39.69,39.69,0,1,1,2,41.7,39.75,39.75,0,0,1,41.69,2m0-2a41.69,41.69,0,1,0,41.7,41.7A41.69,41.69,0,0,0,41.69,0Z"
       id="path53842"
       style="fill:#f7a4a4;fill-opacity:1" />
    <g
       class="cls-4"
       id="g53846" />
    <g
       id="g53852">
      <path
         class="cls-10"
         d="M41.69,69.83A28.13,28.13,0,1,1,69.81,41.7,28.16,28.16,0,0,1,41.69,69.83Z"
         id="path53848"
         style="fill:#f79494;fill-opacity:1" />
      <path
         class="cls-7"
         d="M41.69,16.58A25.13,25.13,0,1,1,16.56,41.7,25.15,25.15,0,0,1,41.69,16.58m0-6A31.13,31.13,0,1,0,72.81,41.7,31.12,31.12,0,0,0,41.69,10.58Z"
         id="path53850"
         style="fill:#f7a4a4;fill-opacity:1" />
    </g>
  </g>
</svg>
