<?xml version="1.0" encoding="utf-8"?>
<!-- Generator: Adobe Illustrator 28.0.0, SVG Export Plug-In . SVG Version: 6.00 Build 0)  -->
<svg version="1.1" id="Layer_1" xmlns="http://www.w3.org/2000/svg" xmlns:xlink="http://www.w3.org/1999/xlink" x="0px" y="0px"
	 viewBox="0 0 750 630.5" style="enable-background:new 0 0 750 630.5;" xml:space="preserve">
<style type="text/css">
	.st0{fill:#8F8F8F;}
	.st1{fill:#FFFFFF;}
</style>
<g>
	<path class="st0" d="M664.4,214c-6.7-16.7-20.5-20.9-21.8-22c-11.7-10.3-2.5-21.2-20-30.7c-18.3-9.9-72-37-114.2-31.4
		c-9.2,1.2-27.8,17.6-41.2,17.6H282.8c-13.4,0-32-16.4-41.2-17.6c-42.2-5.6-95.9,21.5-114.2,31.4c-17.5,9.5-8.2,20.4-19.9,30.7
		c-1.3,1.1-15.1,5.3-21.8,22C22.9,370-1.7,469.1,0.1,529.1C3,623.5,76.7,630.5,76.7,630.5c37-8.6,111.6-129.1,168.5-129.1h259.6
		c57,0,131.5,120.5,168.5,129.1c0,0,73.7-6.9,76.6-101.3C751.8,469.1,727.1,370,664.4,214z"/>
	<path class="st0" d="M548.4,115l50.4,6.8C586.7,5,555.8,10.8,549.1,5.5c-0.4-0.3-0.8-0.6-1.2-0.9c-6.4-4.5-13.6-4.9-25.9-4.4
		c-10.8,0.4-12,11.4-12.1,15.2v1.2c1.8,31,1.8,62.1,0,93.1C519.7,111.9,547.6,114.9,548.4,115z"/>
	<path class="st0" d="M201.7,115c0,0,28.6-3,38.5-5.3c-1.8-31-1.8-62.1,0-93.1v-1.3c-0.1-3.8-1.4-14.8-12.2-15.2
		c-12.2-0.4-19.4,0-25.8,4.4c-0.4,0.3-0.8,0.6-1.2,0.9c-6.8,5.3-37.7-0.5-49.7,116.3L201.7,115L201.7,115z"/>
</g>
<g>
	<path class="st1" d="M184.2,353.4v-44.8h12.9c16.5,0,24.8,7.3,24.8,21.8c0,6.9-2.3,12.5-6.9,16.7c-4.6,4.2-10.7,6.3-18.4,6.3H184.2
		z M191.6,314.9v32.2h5.9c5.2,0,9.3-1.4,12.2-4.3c2.9-2.9,4.4-6.9,4.4-12.2c0-10.5-5.4-15.7-16.3-15.7H191.6z"/>
	<path class="st1" d="M233,314.7c-1.1,0-2.2-0.4-3.1-1.1c-0.8-0.7-1.3-1.8-1.3-2.9c0-1.1,0.4-2.2,1.3-3c0.8-0.8,1.9-1.2,3.1-1.2
		c1.2,0,2.3,0.4,3.1,1.2c0.9,0.8,1.3,1.9,1.3,3c0,1.1-0.5,2.2-1.3,2.9C235.3,314.3,234.2,314.7,233,314.7z M236.6,353.4h-7.2v-32
		h7.2V353.4z"/>
	<path class="st1" d="M244,352.4v-6.7c2.6,2,5.7,3.1,9,3.1c4.4,0,6.6-1.3,6.6-3.9c0-0.7-0.2-1.3-0.6-1.9c-0.4-0.5-0.9-1-1.5-1.4
		c-0.7-0.4-1.5-0.8-2.2-1.1l-2.9-1.1c-1.2-0.5-2.4-1-3.5-1.7c-1-0.5-1.9-1.2-2.6-2c-0.7-0.7-1.2-1.6-1.6-2.5
		c-0.4-1.1-0.6-2.2-0.5-3.3c0-1.4,0.4-2.9,1.1-4.1c0.7-1.2,1.7-2.2,2.9-3c1.3-0.8,2.7-1.4,4.2-1.8c1.6-0.4,3.2-0.6,4.8-0.6
		c2.7,0,5.4,0.4,7.9,1.4v6.3c-2.3-1.6-5-2.4-7.8-2.3c-0.8,0-1.7,0.1-2.5,0.3c-0.7,0.2-1.3,0.4-1.9,0.8c-0.5,0.3-0.9,0.7-1.2,1.2
		c-0.3,0.5-0.4,1-0.4,1.5c0,0.6,0.1,1.2,0.4,1.8c0.3,0.5,0.8,0.9,1.3,1.3c0.6,0.4,1.3,0.7,2.1,1c0.8,0.3,1.7,0.6,2.8,1
		c1.3,0.5,2.5,1.1,3.7,1.7c1,0.5,2,1.2,2.8,2c0.8,0.7,1.4,1.6,1.8,2.6c0.4,1.1,0.6,2.3,0.6,3.5c0,1.5-0.4,3-1.1,4.2
		c-0.8,1.2-1.8,2.2-3,3c-1.3,0.8-2.8,1.4-4.3,1.8c-1.7,0.4-3.4,0.6-5.2,0.6C250,354.2,246.9,353.6,244,352.4z"/>
	<path class="st1" d="M296.5,351.9c-2.8,1.5-5.9,2.3-9.1,2.2c-4.7,0-8.6-1.5-11.5-4.5c-3-3.1-4.6-7.3-4.4-11.5
		c0-5.3,1.6-9.5,4.7-12.7c3.1-3.2,7.3-4.8,12.6-4.8c2.7-0.1,5.3,0.5,7.7,1.5v6.8c-2-1.6-4.5-2.5-7.1-2.5c-2.8-0.1-5.6,1-7.5,3.1
		c-2,2.2-3.1,5.1-2.9,8.1c-0.2,2.9,0.8,5.7,2.8,7.9c2,2,4.7,3,7.4,2.9c2.7,0,5.3-1,7.4-2.8V351.9z"/>
	<path class="st1" d="M317.9,354.2c-4.9,0-8.9-1.5-11.8-4.5s-4.4-7-4.4-11.9c0-5.4,1.5-9.6,4.6-12.6c3.1-3,7.2-4.5,12.4-4.5
		c5,0,8.9,1.5,11.7,4.4s4.2,7,4.2,12.2c0,5.1-1.5,9.2-4.5,12.3S323,354.2,317.9,354.2z M318.2,326.4c-2.6-0.1-5.1,1-6.7,3
		c-1.6,2-2.5,4.7-2.5,8.2c-0.2,2.9,0.7,5.7,2.5,7.9c1.7,1.9,4.1,3,6.7,2.9c2.5,0.1,5-0.9,6.6-2.8c1.5-1.9,2.3-4.6,2.3-8.1
		s-0.8-6.2-2.3-8.1C323.2,327.4,320.8,326.3,318.2,326.4z"/>
	<path class="st1" d="M370.4,353.4h-7.2v-18c0-6-2.1-9-6.4-9c-2.1,0-4.1,0.9-5.5,2.5c-1.5,1.7-2.2,4-2.2,6.3v18.2h-7.3v-32h7.3v5.3
		h0.1c2-3.8,6.1-6.2,10.4-6.1c3.5,0,6.1,1.1,8,3.4s2.8,5.5,2.8,9.8L370.4,353.4z"/>
	<path class="st1" d="M407.8,353.4h-7.2v-18c0-6-2.1-9-6.3-9c-2.1,0-4.1,0.9-5.5,2.5c-1.5,1.7-2.2,4-2.2,6.3v18.2h-7.3v-32h7.3v5.3
		h0.1c2-3.8,6-6.2,10.4-6.1c3.5,0,6.1,1.1,8,3.4s2.8,5.5,2.8,9.8L407.8,353.4z"/>
	<path class="st1" d="M443.7,339.4h-21.8c-0.1,2.6,0.9,5,2.7,6.8c2,1.7,4.6,2.6,7.2,2.4c3.4,0,6.7-1.1,9.4-3.1v5.8
		c-2.9,1.8-6.8,2.7-11.6,2.8c-4.8,0-8.5-1.4-11.1-4.4c-2.7-2.9-4-7-4-12.3c0-5,1.5-9,4.4-12.2c2.8-3.1,6.8-4.8,11-4.7
		c4.4,0,7.7,1.4,10.1,4.2c2.4,2.8,3.6,6.7,3.6,11.7L443.7,339.4L443.7,339.4z M436.7,334.3c0.1-2.2-0.5-4.3-1.8-6.1
		c-1.2-1.5-3.1-2.3-5-2.2c-2,0-3.9,0.8-5.3,2.3c-1.5,1.7-2.5,3.8-2.7,6L436.7,334.3z"/>
	<path class="st1" d="M473.5,351.9c-2.8,1.5-5.9,2.3-9.1,2.2c-4.7,0-8.6-1.5-11.5-4.5c-3-3.1-4.6-7.3-4.4-11.5
		c0-5.3,1.6-9.5,4.7-12.7c3.1-3.2,7.3-4.8,12.6-4.8c2.7-0.1,5.3,0.5,7.7,1.5v6.8c-2-1.6-4.5-2.5-7.1-2.5c-2.8-0.1-5.6,1-7.5,3.1
		c-2,2.2-3.1,5.1-2.9,8.1c-0.2,2.9,0.8,5.7,2.8,7.9c2,2,4.7,3,7.4,2.9c2.7,0,5.3-1,7.4-2.8V351.9z"/>
	<path class="st1" d="M497.6,353.1c-1.8,0.8-3.7,1.1-5.6,1.1c-6.2,0-9.3-3-9.3-8.9v-18.1h-5.4v-5.7h5.4V314l7.2-2.1v9.5h7.6v5.7
		h-7.6v16c-0.1,1.4,0.2,2.9,1,4.1c0.9,0.9,2.2,1.3,3.4,1.2c1.2,0,2.3-0.3,3.2-1.1L497.6,353.1z"/>
	<path class="st1" d="M530.6,339.4h-21.8c-0.1,2.6,0.9,5,2.7,6.8c2,1.7,4.6,2.6,7.2,2.4c3.4,0,6.7-1.1,9.4-3.1v5.8
		c-2.9,1.8-6.8,2.7-11.6,2.8c-4.8,0-8.5-1.4-11.1-4.4c-2.7-2.9-4-7-4-12.3c0-5,1.5-9,4.4-12.2c2.8-3.1,6.8-4.8,11-4.7
		c4.4,0,7.8,1.4,10.2,4.2s3.6,6.7,3.6,11.7L530.6,339.4L530.6,339.4z M523.6,334.3c0.1-2.2-0.5-4.3-1.8-6.1c-1.2-1.5-3.1-2.3-5-2.2
		c-2,0-3.9,0.8-5.3,2.3c-1.5,1.7-2.5,3.8-2.7,6L523.6,334.3z"/>
	<path class="st1" d="M566.6,353.4h-7.2V348h-0.1c-3.5,5.9-11.2,7.9-17.1,4.4c-1.1-0.7-2.2-1.5-3.1-2.5c-2.4-2.9-3.5-6.8-3.5-11.7
		c0-5.3,1.3-9.5,3.9-12.7c2.5-3.2,6.4-4.9,10.5-4.8c4.3,0,7.4,1.7,9.4,5.2h0.1V306h7.2L566.6,353.4z M559.4,338.8v-4.2
		c0-2.1-0.7-4.2-2.2-5.8c-1.5-1.6-3.5-2.4-5.7-2.4c-2.5-0.1-4.9,1-6.4,3c-1.5,2-2.3,4.8-2.3,8.4c-0.2,2.7,0.6,5.5,2.2,7.7
		c1.4,1.9,3.7,2.9,6,2.8c2.3,0.1,4.5-0.9,6-2.7C558.6,343.7,559.5,341.3,559.4,338.8z"/>
</g>
</svg>
