<?xml version="1.0" encoding="UTF-8" standalone="no"?>
<svg
   id="Layer_1"
   data-name="Layer 1"
   width="90"
   height="121.8"
   viewBox="0 0 90 121.8"
   version="1.1"
   sodipodi:docname="lt-pressed.svg"
   inkscape:version="1.2.2 (732a01da63, 2022-12-09)"
   xmlns:inkscape="http://www.inkscape.org/namespaces/inkscape"
   xmlns:sodipodi="http://sodipodi.sourceforge.net/DTD/sodipodi-0.dtd"
   xmlns="http://www.w3.org/2000/svg"
   xmlns:svg="http://www.w3.org/2000/svg">
  <sodipodi:namedview
     id="namedview7520"
     pagecolor="#ffffff"
     bordercolor="#000000"
     borderopacity="0.25"
     inkscape:showpageshadow="2"
     inkscape:pageopacity="0.0"
     inkscape:pagecheckerboard="0"
     inkscape:deskcolor="#d1d1d1"
     showgrid="false"
     inkscape:zoom="18.902624"
     inkscape:cx="64.938074"
     inkscape:cy="114.08469"
     inkscape:window-width="1920"
     inkscape:window-height="1001"
     inkscape:window-x="-9"
     inkscape:window-y="-9"
     inkscape:window-maximized="1"
     inkscape:current-layer="Layer_1" />
  <defs
     id="defs7510">
    <style
       id="style7508">
      .cls-1 {
        fill: #e5e5e5;
      }

      .cls-2 {
        fill: #ebebeb;
      }
    </style>
  </defs>
  <g
     id="LT_Pressed"
     data-name="LT Pressed"
     style="display:none">
    <path
       class="cls-1"
       d="m 74.75,56.08 v -0.67 a 5.91,5.91 0 0 1 0,0.67 z"
       id="path7512" />
    <path
       class="cls-1"
       d="m 49.72,5.47 c 0.4,-0.32 0.8,-0.62 1.21,-0.9 l 2.32,110 L 0,121.79 C 12.07,5 43,10.76 49.72,5.47 Z"
       id="path7514" />
    <path
       class="cls-2"
       d="m 76.74,0.14 c 10.83,0.41 12.07,11.44 12.19,15.19 v 1.23 a 819.52,819.52 0 0 0 0,93.09 C 79,111.94 50.39,115 50.39,115 c 0,0 0,-20.91 -0.68,-50.6 C 48.9,26.9 50.93,4.62 50.93,4.62 57.34,0.09 64.49,-0.31 76.74,0.14 Z"
       id="path7516" />
  </g>
  <rect
     style="fill:#508afc;fill-opacity:1;stroke:none;stroke-width:3;stroke-dasharray:none;stroke-opacity:1"
     id="rect52064-2-2-8"
     width="86.719276"
     height="27.719276"
     x="1.7807236"
     y="92.580727"
     ry="7.4658461" />
</svg>
