<?xml version="1.0" encoding="UTF-8" standalone="no"?>
<svg
   id="Layer_2"
   data-name="Layer 2"
   width="171.15"
   height="62.86"
   viewBox="0 0 171.15 62.86"
   version="1.1"
   sodipodi:docname="rb-pressed.svg"
   inkscape:version="1.2.2 (732a01da63, 2022-12-09)"
   xmlns:inkscape="http://www.inkscape.org/namespaces/inkscape"
   xmlns:sodipodi="http://sodipodi.sourceforge.net/DTD/sodipodi-0.dtd"
   xmlns="http://www.w3.org/2000/svg"
   xmlns:svg="http://www.w3.org/2000/svg">
  <sodipodi:namedview
     id="namedview6978"
     pagecolor="#ffffff"
     bordercolor="#000000"
     borderopacity="0.25"
     inkscape:showpageshadow="2"
     inkscape:pageopacity="0.0"
     inkscape:pagecheckerboard="0"
     inkscape:deskcolor="#d1d1d1"
     showgrid="false"
     inkscape:zoom="6.2592276"
     inkscape:cx="120.2225"
     inkscape:cy="27.080019"
     inkscape:window-width="1920"
     inkscape:window-height="1001"
     inkscape:window-x="-9"
     inkscape:window-y="-9"
     inkscape:window-maximized="1"
     inkscape:current-layer="Layer_2" />
  <defs
     id="defs6961">
    <style
       id="style6959">
      .cls-1 {
        fill: #f2f2f2;
      }

      .cls-1, .cls-2, .cls-3 {
        stroke-width: 0px;
      }

      .cls-2 {
        fill: #fff;
      }

      .cls-3 {
        fill: #e5e5e5;
      }
    </style>
  </defs>
  <g
     id="Layer_1-2"
     data-name="Layer 1"
     style="display:none">
    <g
       id="LB_Pressed"
       data-name="LB Pressed">
      <path
         class="cls-1"
         d="m 2.04,17.33 3.42,6.35 c 5.58,-2.9 17.27,-13.36 32.8,-18.23 24.31,-7.62 122.11,34.52 122,34.38 -0.11,-0.14 -0.33,-0.47 -0.33,-0.47 v 0 c -0.1,-0.16 -0.21,-0.31 -0.32,-0.45 l -0.07,-0.08 -0.31,-0.41 -0.1,-0.1 c -0.09,-0.11 -0.2,-0.25 -0.31,-0.37 -0.04,-0.04 -0.08,-0.08 -0.11,-0.12 -0.1,-0.13 -0.21,-0.24 -0.33,-0.35 -0.04,-0.05 -0.08,-0.1 -0.12,-0.15 -0.12,-0.1 -0.22,-0.21 -0.32,-0.33 l -0.17,-0.16 -0.33,-0.32 c -0.07,-0.05 -0.13,-0.1 -0.18,-0.16 -0.1,-0.11 -0.22,-0.2 -0.34,-0.29 -0.06,-0.07 -0.13,-0.13 -0.2,-0.19 -0.12,-0.11 -0.23,-0.19 -0.35,-0.29 l -0.22,-0.19 -0.4,-0.29 c -0.08,-0.06 -0.16,-0.12 -0.25,-0.17 -0.12,-0.11 -0.24,-0.2 -0.37,-0.29 l -0.25,-0.19 -0.4,-0.27 -0.27,-0.21 c -0.15,-0.08 -0.29,-0.17 -0.42,-0.27 l -0.29,-0.18 c -0.16,-0.09 -0.31,-0.19 -0.45,-0.3 -0.1,-0.04 -0.2,-0.1 -0.29,-0.16 -0.18,-0.11 -0.35,-0.22 -0.53,-0.31 -0.09,-0.05 -0.17,-0.1 -0.25,-0.16 -0.27,-0.15 -0.56,-0.3 -0.83,-0.47 C 132.87,22.22 79.15,-4.86 36.93,0.76 29.08,1.8 14.46,13.78 2.04,17.33 Z"
         id="path6963" />
      <g
         id="g6971">
        <path
           class="cls-3"
           d="M 4.52,24.19 4.98,24 Z"
           id="path6965" />
        <path
           class="cls-3"
           d="M 5.47,23.71 21.32,53.29 C 32.5,40.62 43.28,30.29 52.4,28.53 71.98,24.75 137.99,45 171.15,62.86 h -0.06 C 162.46,55.19 165.25,47.3 160.25,39.86 159.58,39.58 62.48,-2.07 38.27,5.49 22.72,10.36 11.04,20.84 5.46,23.72 v 0 z"
           id="path6967" />
        <path
           class="cls-2"
           d="M 4.98,23.97 5.46,23.72 Z"
           id="path6969" />
      </g>
      <path
         class="cls-2"
         d="m 20.6,54.1 v 0 L 21.32,53.3 5.42,23.71 2,17.37 c -0.32,0.08 -0.68,0.17 -1,0.27 -0.32,0.1 -0.66,0.16 -1,0.23 l 3.49,6.53 16.38,30.54 c 0.26,-0.27 0.49,-0.54 0.73,-0.84"
         id="path6973" />
    </g>
  </g>
  <rect
     style="fill:#ee50fc;fill-opacity:1;stroke:none;stroke-width:2.89434;stroke-dasharray:none;stroke-opacity:1"
     id="rect52064"
     width="114.34348"
     height="33.856461"
     x="55.359341"
     y="27.55637"
     ry="9.1188211" />
</svg>
