<?xml version="1.0" encoding="UTF-8" standalone="no"?>
<svg
   id="Layer_2"
   data-name="Layer 2"
   width="90"
   height="121.79"
   viewBox="0 0 90 121.79"
   version="1.1"
   sodipodi:docname="rt-pressed.svg"
   inkscape:version="1.2.2 (732a01da63, 2022-12-09)"
   xmlns:inkscape="http://www.inkscape.org/namespaces/inkscape"
   xmlns:sodipodi="http://sodipodi.sourceforge.net/DTD/sodipodi-0.dtd"
   xmlns="http://www.w3.org/2000/svg"
   xmlns:svg="http://www.w3.org/2000/svg">
  <sodipodi:namedview
     id="namedview8059"
     pagecolor="#ffffff"
     bordercolor="#000000"
     borderopacity="0.25"
     inkscape:showpageshadow="2"
     inkscape:pageopacity="0.0"
     inkscape:pagecheckerboard="0"
     inkscape:deskcolor="#d1d1d1"
     showgrid="false"
     inkscape:zoom="4.7260441"
     inkscape:cx="5.81882"
     inkscape:cy="66.122954"
     inkscape:window-width="1920"
     inkscape:window-height="1001"
     inkscape:window-x="-9"
     inkscape:window-y="-9"
     inkscape:window-maximized="1"
     inkscape:current-layer="Layer_2" />
  <defs
     id="defs8048">
    <style
       id="style8046">
      .cls-1 {
        fill: #e5e5e5;
      }

      .cls-1, .cls-2 {
        stroke-width: 0px;
      }

      .cls-2 {
        fill: #ebebeb;
      }
    </style>
  </defs>
  <g
     id="Layer_1-2"
     data-name="Layer 1"
     style="display:none">
    <g
       id="LT_Pressed"
       data-name="LT Pressed">
      <path
         class="cls-1"
         d="m 14.18,55.41 v 0.67 c -0.01,-0.22 -0.01,-0.45 0,-0.67 z"
         id="path8050" />
      <path
         class="cls-1"
         d="M 88.93,121.79 35.68,114.57 38,4.57 c 0.41,0.28 0.81,0.58 1.21,0.9 6.72,5.29 37.65,-0.47 49.72,116.32 z"
         id="path8052" />
      <path
         class="cls-2"
         d="m 38,4.62 c 0,0 2.03,22.28 1.22,59.78 -0.68,29.69 -0.68,50.6 -0.68,50.6 0,0 -28.61,-3.06 -38.54,-5.35 1.76,-31 1.76,-62.09 0,-93.09 V 15.33 C 0.12,11.58 1.36,0.55 12.19,0.14 24.44,-0.31 31.59,0.09 38,4.62 Z"
         id="path8054" />
    </g>
  </g>
  <rect
     style="fill:#508afc;fill-opacity:1;stroke:#508afc;stroke-width:3;stroke-dasharray:none;stroke-opacity:1"
     id="rect52064-2-2-8"
     width="86.719276"
     height="27.719276"
     x="1.5"
     y="1.5"
     ry="7.4658461" />
</svg>
