<?xml version="1.0" encoding="UTF-8" standalone="no"?>
<svg
   id="Layer_2"
   data-name="Layer 2"
   width="83.4"
   height="83.4"
   viewBox="0 0 83.4 83.4"
   version="1.1"
   sodipodi:docname="stick-pressed.svg"
   inkscape:version="1.2.2 (732a01da63, 2022-12-09)"
   xmlns:inkscape="http://www.inkscape.org/namespaces/inkscape"
   xmlns:sodipodi="http://sodipodi.sourceforge.net/DTD/sodipodi-0.dtd"
   xmlns="http://www.w3.org/2000/svg"
   xmlns:svg="http://www.w3.org/2000/svg">
  <sodipodi:namedview
     id="namedview13816"
     pagecolor="#ffffff"
     bordercolor="#000000"
     borderopacity="0.25"
     inkscape:showpageshadow="2"
     inkscape:pageopacity="0.0"
     inkscape:pagecheckerboard="0"
     inkscape:deskcolor="#d1d1d1"
     showgrid="false"
     inkscape:zoom="9.7601917"
     inkscape:cx="37.652949"
     inkscape:cy="41.751229"
     inkscape:window-width="1920"
     inkscape:window-height="1001"
     inkscape:window-x="-9"
     inkscape:window-y="-9"
     inkscape:window-maximized="1"
     inkscape:current-layer="Layer_2" />
  <defs
     id="defs13793">
    <style
       id="style13791">
      .cls-1 {
        opacity: .06;
      }

      .cls-2, .cls-3, .cls-4, .cls-5, .cls-6 {
        stroke-width: 0px;
      }

      .cls-3 {
        fill: #dedede;
      }

      .cls-4 {
        fill: #d9d9d9;
      }

      .cls-5 {
        fill: #bfbfbf;
      }

      .cls-6 {
        fill: #e5e5e5;
      }
    </style>
  </defs>
  <g
     id="Layer_1-2"
     data-name="Layer 1"
     style="display:none">
    <g
       id="LS_pressed"
       data-name="LS pressed">
      <g
         id="g13799">
        <path
           class="cls-6"
           d="M 83.4,41.7 C 83.4,64.73 64.73,83.4 41.7,83.4 18.67,83.4 0,64.73 0,41.7 0,18.67 18.67,0 41.7,0 64.72,0 83.39,18.66 83.4,41.68 Z"
           id="path13795" />
        <path
           class="cls-5"
           d="m 41.7,0 h -2.01 l 0.94,20 h 1.07 z m -4,0.19 H 37.39 C 36.83,0.25 36.27,0.32 35.72,0.4 l 2.84,19.79 c 0.34,0 0.69,-0.09 1,-0.12 z m -4,0.57 h -0.51 c -0.48,0.1 -1,0.2 -1.44,0.32 l 4.73,19.43 c 0.34,-0.08 0.68,-0.16 1,-0.22 L 33.74,0.76 Z m -3.88,1 -0.8,0.24 h -0.11 l -0.93,0.31 6.6,18.88 c 0.32,-0.11 0.65,-0.22 1,-0.31 L 29.86,1.71 Z M 26.08,3 C 25.46,3.25 24.85,3.52 24.25,3.8 L 32.63,22 c 0.31,-0.15 0.63,-0.29 1,-0.42 z m -3.63,1.7 c -0.59,0.31 -1.17,0.63 -1.75,1 l 10.09,17.24 c 0.3,-0.18 0.6,-0.35 0.91,-0.51 z M 19.01,6.72 C 18.45,7.08 17.9,7.45 17.36,7.85 l 11.65,16.22 c 0.29,-0.2 0.57,-0.4 0.87,-0.59 z m -3.25,2.33 c -0.53,0.42 -1,0.85 -1.54,1.29 l 13.19,15 c 0.26,-0.23 0.53,-0.45 0.8,-0.67 z m -3,2.64 c -0.29,0.27 -0.56,0.55 -0.84,0.84 v 0 l -0.43,0.45 14.42,13.84 c 0.23,-0.25 0.48,-0.5 0.73,-0.74 L 12.75,11.69 Z M 10.01,14.6 H 9.88 c -0.38,0.45 -0.75,0.9 -1.1,1.36 v 0 l 15.8,12.26 c 0.21,-0.27 0.43,-0.54 0.66,-0.81 z M 7.56,17.76 7.4,18 v 0 c -0.32,0.46 -0.62,0.92 -0.92,1.39 l 16.9,10.7 c 0.18,-0.29 0.38,-0.59 0.58,-0.87 z M 5.42,21.14 5.01,22 v 0 l -0.49,0.93 17.85,9 c 0.16,-0.31 0.32,-0.62 0.5,-0.92 z m -1.8,3.57 c -0.07,0.15 -0.14,0.3 -0.2,0.45 v 0 0.06 0 c 0,0 0,0.04 0,0.06 v 0 C 3.24,25.7 3.06,26.12 2.9,26.55 l 18.63,7.26 c 0.13,-0.32 0.26,-0.64 0.4,-1 z M 2.16,28.43 C 2.07,28.7 1.99,28.97 1.9,29.24 v 0 C 1.84,29.42 1.79,29.6 1.74,29.79 l 19.25,5.43 c 0.09,-0.33 0.19,-0.67 0.3,-1 l -19,-6.35 z m -1.08,3.85 c -0.07,0.53 -0.24,1.06 -0.34,1.59 0,0.13 0,0.25 -0.07,0.37 l 19.69,3.55 c 0.06,-0.34 0.13,-0.68 0.2,-1 z M 0.37,36.22 C 0.31,36.64 0.26,37.07 0.22,37.5 h 0 c 0,0.2 0,0.39 -0.05,0.59 l 19.93,1.66 c 0,-0.35 0.07,-0.7 0.11,-1 z M 0.01,40.2 v 1 0 0.06 0 0.24 0 0.4 l 20,0.1 v -1.09 z m 20,2.8 -19.93,1.2 c 0,0.57 0.08,1.14 0.14,1.7 h 0 c 0,0.06 0,0.12 0,0.18 L 20.1,43.95 c 0,-0.34 -0.06,-0.69 -0.08,-1 V 43 Z m 0.22,2.08 -19.72,3.09 v 0 c 0.08,0.53 0.17,1.05 0.28,1.57 v 0 0.16 l 19.59,-4 c -0.06,-0.34 -0.13,-0.68 -0.18,-1 z m 0.42,2 -19.37,5 c 0.16,0.65 0.34,1.29 0.54,1.93 l 19.19,-5.89 c -0.1,-0.33 -0.2,-0.67 -0.28,-1 z m 0.61,2 -18.77,6.83 c 0.23,0.63 0.47,1.25 0.73,1.87 l 18.45,-7.72 c -0.13,-0.32 -0.26,-0.64 -0.37,-1 z m 0.79,1.9 -18.04,8.62 0.1,0.22 v 0 c 0.18,0.37 0.36,0.73 0.55,1.1 v 0 c 0,0.11 0.11,0.22 0.17,0.33 l 17.62,-9.46 c -0.16,-0.31 -0.32,-0.62 -0.47,-0.93 z m 1,1.83 -17.12,10.31 0.29,0.48 v 0 c 0.24,0.38 0.49,0.77 0.74,1.14 L 23.59,53.64 C 23.4,53.35 23.21,53.06 23.04,52.76 v 0.05 z m 1.15,1.73 -16.05,11.91 0.22,0.3 v 0 c 0.23,0.3 0.46,0.6 0.7,0.89 L 24.57,55 c -0.22,-0.27 -0.43,-0.55 -0.64,-0.83 z m 1.32,1.62 -14.84,13.39 c 0.44,0.49 0.9,1 1.37,1.45 L 26.27,56.94 c -0.24,-0.24 -0.49,-0.5 -0.72,-0.76 z m 1.49,1.51 -13.52,14.72 c 0.25,0.23 0.5,0.46 0.76,0.68 h 0.06 l 0.66,0.57 12.84,-15.28 C 27.54,58.14 27.28,57.9 27.02,57.67 v 0 z M 28.63,59 16.56,75 c 0.3,0.23 0.61,0.46 0.93,0.68 l 0.69,0.48 11.29,-16.5 c -0.28,-0.2 -0.57,-0.4 -0.84,-0.61 z m 1.72,1.18 -10.49,17 0.1,0.07 v 0 c 0.5,0.3 1,0.6 1.52,0.88 v 0 l 9.67,-17.51 c -0.31,-0.17 -0.61,-0.34 -0.9,-0.52 z m 1.82,1 -8.81,18 0.33,0.17 h 0.16 c 0.42,0.2 0.84,0.39 1.26,0.57 l 8,-18.3 c -0.32,-0.13 -0.64,-0.28 -0.94,-0.43 v 0 z m 1.9,0.82 -7.06,18.73 c 0.62,0.24 1.25,0.45 1.89,0.66 l 6.12,-19 -1,-0.34 z m 2,0.63 -5.24,19.37 0.24,0.06 h 0.21 c 0.49,0.13 0.99,0.25 1.5,0.36 l 4.23,-19.54 c -0.34,-0.07 -0.68,-0.15 -1,-0.24 h 0.06 z m 2,0.44 -3.33,19.74 c 0.5,0.08 1,0.16 1.51,0.22 l 0.47,0.06 2.36,-19.86 c -0.34,0 -0.69,-0.09 -1,-0.15 v 0 z m 2.07,0.25 -1.41,20 h 2.04 l 0.46,-20 z m 3.16,0 -1.05,0.05 0.48,20 h 0.69 l 1.18,-0.06 h 0.13 l -1.43,-20 v 0 z m 2.08,-0.25 c -0.34,0.06 -0.69,0.11 -1,0.15 l 2.37,19.86 c 0.61,-0.08 1.22,-0.16 1.83,-0.26 h 0.15 L 45.36,63.08 h 0.02 z m 2,-0.44 c -0.33,0.09 -0.67,0.17 -1,0.24 l 4.27,19.54 h 0.43 l 0.76,-0.18 h 0.36 l 0.39,-0.1 -5.2,-19.32 v -0.18 z m 2,-0.63 -1,0.34 6.13,19 0.92,-0.31 h 0.19 L 56.4,80.74 49.34,62 Z m 1.91,-0.83 -1,0.44 7.95,18.39 c 0.35,-0.15 0.7,-0.3 1.05,-0.47 h 0.15 l 0.62,-0.29 -8.81,-18 z m 1.81,-1 c -0.29,0.18 -0.59,0.36 -0.89,0.52 l 9.66,17.51 0.18,-0.1 h 0.1 l 1.37,-0.8 -10.5,-17 z M 54.78,59 c -0.27,0.21 -0.56,0.42 -0.84,0.61 l 11.3,16.5 0.75,-0.53 h 0.14 l 0.6,-0.45 z m 1.61,-1.34 c -0.26,0.24 -0.52,0.47 -0.79,0.69 L 68.42,73.7 h 0.34 l 1,-0.86 v 0 z m 1.47,-1.49 c -0.23,0.26 -0.48,0.52 -0.72,0.77 L 71.37,71 v 0 l 0.93,-1 v 0 c 0.1,-0.12 0.21,-0.24 0.32,-0.35 0,0 -14.76,-13.48 -14.76,-13.48 z m 1.32,-1.61 c -0.21,0.27 -0.42,0.55 -0.64,0.82 L 74.01,68 v 0 c 0.21,-0.26 0.42,-0.52 0.62,-0.79 v 0 c 0.11,-0.16 0.23,-0.31 0.35,-0.47 0,0 -15.8,-12.18 -15.8,-12.18 z m 1.15,-1.74 c -0.17,0.3 -0.36,0.59 -0.55,0.88 l 16.63,11.1 0.14,-0.21 v 0 c 0.31,-0.47 0.61,-0.95 0.9,-1.43 v 0 c 0,0 -17.12,-10.34 -17.12,-10.34 z m 1,-1.83 c -0.14,0.32 -0.3,0.63 -0.46,0.93 l 17.62,9.45 0.27,-0.51 0.42,-0.83 v 0 c 0.06,-0.11 0.11,-0.22 0.16,-0.33 L 61.31,51 h 0.02 z m 0.8,-1.9 c -0.12,0.32 -0.24,0.64 -0.37,1 l 18.45,7.71 c 0.1,-0.23 0.19,-0.46 0.28,-0.69 v 0 c 0.13,-0.36 0.27,-0.71 0.4,-1.06 L 62.11,49.09 Z m 0.61,-2 c -0.09,0.33 -0.18,0.67 -0.28,1 L 81.55,54 c 0,-0.14 0.08,-0.27 0.13,-0.41 v 0 c 0.12,-0.4 0.23,-0.81 0.33,-1.21 l -19.37,-5 z m 0.41,-2 c -0.05,0.34 -0.11,0.67 -0.18,1 l 19.59,4 c 0.12,-0.57 0.22,-1.15 0.32,-1.72 0,-0.08 0,-0.17 0,-0.25 L 63.13,45.09 Z M 63.36,43 c 0,0.35 -0.05,0.7 -0.09,1 l 19.89,2.13 c 0,-0.24 0,-0.47 0.07,-0.71 v 0 c 0,-0.38 0.06,-0.76 0.09,-1.14 v -0.06 z m 20,-2.82 -20,0.71 V 42 l 20,0.23 v -0.43 0 -0.09 0 -0.17 0 -0.34 0 -0.44 0 -0.09 0 -0.15 0 c 0,-0.09 0,-0.18 0,-0.27 z m -0.33,-4 -19.82,2.63 c 0,0.34 0.08,0.69 0.11,1 l 19.93,-1.66 v -0.47 0 c 0,-0.46 -0.1,-0.92 -0.15,-1.37 z m -0.72,-3.93 -19.48,4.5 0.21,1 19.68,-3.56 C 82.66,33.88 82.6,33.56 82.53,33.24 v 0 l -0.07,-0.32 v 0 -0.06 0 L 82.4,32.62 Z m -1.08,-3.85 -19,6.36 c 0.11,0.33 0.21,0.66 0.3,1 l 19.25,-5.44 v 0 c -0.14,-0.49 -0.29,-1 -0.45,-1.46 v 0 c 0,-0.1 -0.07,-0.19 -0.1,-0.29 z m -1.46,-3.73 -18.25,8.18 c 0.14,0.32 0.28,0.64 0.4,1 l 18.63,-7.27 c -0.24,-0.62 -0.5,-1.24 -0.77,-1.85 V 24.67 Z M 78.01,21.12 60.59,31 c 0.17,0.3 0.33,0.61 0.49,0.92 l 17.84,-9 c -0.26,-0.52 -0.54,-1 -0.82,-1.55 v 0 z m -2.14,-3.37 -16.4,11.5 c 0.2,0.28 0.4,0.57 0.58,0.86 l 16.9,-10.7 -0.13,-0.2 v 0 c -0.21,-0.33 -0.43,-0.66 -0.65,-1 v 0 l -0.26,-0.38 z m -2.45,-3.16 -15.2,13 c 0.23,0.26 0.45,0.53 0.66,0.81 L 74.68,16.13 74.53,16 v 0 l -0.12,-0.15 z m -2.75,-2.91 -13.91,14.4 c 0.25,0.24 0.5,0.49 0.73,0.74 L 72.01,13.1 v 0 c -0.46,-0.49 -0.93,-1 -1.41,-1.42 z M 67.63,9 55.18,24.7 c 0.28,0.21 0.55,0.44 0.81,0.67 l 13.18,-15 -0.23,-0.21 v 0 c -0.41,-0.35 -0.83,-0.7 -1.26,-1 z M 64.39,6.71 53.49,23.48 c 0.29,0.19 0.58,0.38 0.86,0.59 L 66.01,7.84 65.55,7.51 v 0 L 65.01,7.12 v 0 L 64.46,6.76 Z m -3.45,-2 -9.24,17.72 0.91,0.5 L 62.69,5.66 62.25,5.41 H 62.2 C 61.8,5.18 61.39,4.97 60.99,4.75 Z M 57.3,3 49.82,21.56 50.77,21.97 59.14,3.81 h -0.31 c -0.5,-0.23 -1,-0.44 -1.53,-0.65 z m -3.77,-1.3 -5.66,19.18 1,0.32 L 55.43,2.31 54.1,1.87 H 53.95 L 53.53,1.74 Z m -3.89,-0.94 -3.78,19.63 1,0.22 L 51.6,1.18 H 51.37 L 50.55,0.94 h -0.24 z m -4,-0.57 -1.84,19.91 c 0.34,0 0.69,0.07 1,0.12 l 2.87,-19.8 -0.5,-0.06 h -0.16 l -0.9,-0.1 H 45.74 Z M 41.64,0 v 20 h 1.05 L 43.63,0 Z"
           id="path13797" />
      </g>
      <path
         class="cls-4"
         d="M 41.7,2 C 63.62,2 81.39,19.77 81.39,41.69 81.39,63.61 63.62,81.38 41.7,81.38 19.78,81.38 2.02,63.62 2.01,41.7 2.04,19.79 19.79,2.03 41.7,2 m 0,-2 C 18.68,0 0.01,18.68 0.02,41.7 0.02,64.72 18.7,83.39 41.72,83.38 64.74,83.38 83.39,64.72 83.4,41.7 83.41,18.68 64.74,0 41.72,0 c 0,0 -0.01,0 -0.02,0 z"
         id="path13801" />
      <g
         class="cls-1"
         id="g13805">
        <path
           class="cls-2"
           d="m 77.72,41.7 c 0,19.88 -16.12,36 -36,36 -19.88,0 -36,-16.12 -36,-36 0,-19.88 16.12,-36 36,-36 19.88,0 36,16.12 36,36 z"
           id="path13803" />
      </g>
      <g
         id="g13811">
        <path
           class="cls-3"
           d="m 41.7,69.83 c -15.54,0 -28.13,-12.58 -28.14,-28.12 0,-15.54 12.58,-28.13 28.12,-28.14 15.54,0 28.13,12.58 28.14,28.12 v 0 C 69.8,57.23 57.23,69.81 41.7,69.83 Z"
           id="path13807" />
        <path
           class="cls-6"
           d="m 41.7,16.58 c 13.88,0 25.13,11.25 25.13,25.13 0,13.88 -11.25,25.13 -25.13,25.13 -13.88,0 -25.13,-11.25 -25.13,-25.13 0,0 0,0 0,0 C 16.59,27.84 27.83,16.6 41.7,16.59 m 0,-6 c -17.19,0 -31.13,13.93 -31.14,31.12 0,17.19 13.93,31.13 31.12,31.14 17.19,0.01 31.13,-13.93 31.14,-31.12 V 41.71 C 72.82,24.52 58.89,10.59 41.7,10.59 Z"
           id="path13809" />
      </g>
    </g>
  </g>
  <path
     class="cls-7"
     d="M 81.881764,41.690358 A 40.192355,40.192355 0 1 1 41.689406,1.4980012 40.182717,40.182717 0 0 1 81.881764,41.690358 Z"
     id="path9769"
     style="fill:#fcfcfc;fill-opacity:1;stroke:#fcfcfc;stroke-width:2.996;stroke-dasharray:none;stroke-opacity:1" />
</svg>
