<?xml version="1.0" encoding="UTF-8" standalone="no"?>
<svg
   id="Layer_2"
   data-name="Layer 2"
   width="83.38"
   height="83.38"
   viewBox="0 0 83.38 83.38"
   version="1.1"
   sodipodi:docname="stick.svg"
   inkscape:version="1.2.2 (732a01da63, 2022-12-09)"
   xmlns:inkscape="http://www.inkscape.org/namespaces/inkscape"
   xmlns:sodipodi="http://sodipodi.sourceforge.net/DTD/sodipodi-0.dtd"
   xmlns="http://www.w3.org/2000/svg"
   xmlns:svg="http://www.w3.org/2000/svg">
  <sodipodi:namedview
     id="namedview10934"
     pagecolor="#ffffff"
     bordercolor="#000000"
     borderopacity="0.25"
     inkscape:showpageshadow="2"
     inkscape:pageopacity="0.0"
     inkscape:pagecheckerboard="0"
     inkscape:deskcolor="#d1d1d1"
     showgrid="false"
     inkscape:zoom="9.7625333"
     inkscape:cx="33.751485"
     inkscape:cy="41.843647"
     inkscape:window-width="1920"
     inkscape:window-height="1001"
     inkscape:window-x="-9"
     inkscape:window-y="-9"
     inkscape:window-maximized="1"
     inkscape:current-layer="Layer_2" />
  <defs
     id="defs10910">
    <style
       id="style10908">
      .cls-1 {
        opacity: .06;
      }

      .cls-2 {
        fill: #262626;
      }

      .cls-2, .cls-3, .cls-4, .cls-5, .cls-6 {
        stroke-width: 0px;
      }

      .cls-3 {
        fill: #1a1a1a;
      }

      .cls-4 {
        fill: #404040;
      }

      .cls-5 {
        fill: #212121;
      }

      .cls-6 {
        fill: #fff;
      }
    </style>
  </defs>
  <g
     id="Layer_1-2"
     data-name="Layer 1"
     style="display:inline">
    <g
       id="g10930"
       style="display:none">
      <g
         id="g10916">
        <path
           class="cls-3"
           d="M 83.38,41.7 C 83.38,64.72 64.7,83.39 41.68,83.38 18.66,83.37 0,64.7 0,41.68 0,18.66 18.66,0 41.68,0 64.7,-0.01 83.37,18.64 83.38,41.66 Z"
           id="path10912" />
        <path
           class="cls-4"
           d="m 41.68,0 h -2.01 l 1,20 h 1 V 0 Z m -4,0.19 H 37.37 C 36.81,0.25 36.25,0.32 35.7,0.4 l 2.84,19.79 c 0.35,0 0.69,-0.09 1,-0.12 z m -3.95,0.57 h -0.52 c -0.48,0.1 -1,0.2 -1.44,0.32 l 4.74,19.43 c 0.33,-0.08 0.67,-0.16 1,-0.22 z m -3.89,1 -0.8,0.24 h -0.12 l -0.93,0.31 6.59,18.88 c 0.32,-0.11 0.65,-0.22 1,-0.31 L 29.84,1.71 Z M 26.07,3 C 25.45,3.25 24.84,3.52 24.23,3.8 L 32.61,22 c 0.32,-0.15 0.63,-0.29 1,-0.42 z m -3.63,1.7 c -0.59,0.31 -1.18,0.63 -1.75,1 l 10.09,17.28 c 0.29,-0.18 0.6,-0.35 0.9,-0.51 z m -3.45,2 c -0.56,0.36 -1.11,0.73 -1.66,1.13 l 11.7,16.22 0.86,-0.59 -10.9,-16.74 z m -3.25,2.33 c -0.52,0.42 -1.03,0.85 -1.53,1.29 l 13.18,15 c 0.27,-0.23 0.53,-0.45 0.81,-0.67 L 15.74,9.05 Z m -3,2.64 -0.84,0.84 v 0 l -0.43,0.45 14.56,13.71 c 0.24,-0.25 0.49,-0.5 0.74,-0.74 L 12.73,11.69 V 11.67 Z M 9.99,14.6 v 0 c -0.38,0.45 -0.74,0.9 -1.1,1.36 v 0 l 15.8,12.26 c 0.21,-0.27 0.44,-0.54 0.66,-0.81 l -15.2,-13 z m -2.45,3.16 -0.15,0.23 v 0 c -0.32,0.46 -0.63,0.92 -0.93,1.39 l 16.9,10.7 c 0.19,-0.29 0.38,-0.59 0.58,-0.87 z M 5.4,21.14 4.95,21.95 v 0 c -0.17,0.31 -0.33,0.62 -0.49,0.93 l 17.85,9 c 0.15,-0.31 0.32,-0.62 0.49,-0.92 L 5.4,21.09 Z m -1.79,3.57 -0.2,0.45 v 0 0.06 0 0.06 0 C 3.23,25.7 3.06,26.12 2.89,26.55 l 18.63,7.26 c 0.13,-0.32 0.26,-0.64 0.4,-1 z M 2.16,28.43 C 2.07,28.7 1.98,28.97 1.9,29.24 v 0 C 1.84,29.42 1.79,29.6 1.74,29.79 l 19.24,5.43 c 0.1,-0.33 0.2,-0.66 0.31,-1 l -19,-6.35 z m -1.09,3.85 c -0.12,0.53 -0.23,1.06 -0.33,1.59 0,0.13 -0.05,0.25 -0.07,0.37 l 19.68,3.55 c 0.06,-0.34 0.13,-0.68 0.21,-1 L 1.07,32.29 v 0 z M 0.36,36.22 0.21,37.5 v 0 l -0.06,0.59 19.93,1.66 c 0,-0.35 0.07,-0.7 0.12,-1 L 0.36,36.15 Z m -0.33,4 v 1 0 0.06 0 0.24 0 0.4 l 20,-0.23 v 0 -0.78 l -20,-0.71 z m 20,2.82 -20,1.18 c 0,0.57 0.08,1.14 0.13,1.7 v 0 0.18 l 19.89,-2.13 c 0,-0.34 -0.07,-0.69 -0.09,-1 z m 0.23,2.08 -19.76,3.06 v 0 c 0.09,0.53 0.18,1.05 0.28,1.57 v 0 0.17 l 19.59,-4 c -0.07,-0.34 -0.13,-0.67 -0.18,-1 z m 0.41,2 -19.37,5 c 0.17,0.65 0.35,1.29 0.54,1.93 l 19.11,-5.9 c -0.1,-0.33 -0.19,-0.67 -0.28,-1 z m 0.61,2 -18.8,6.81 c 0.23,0.63 0.47,1.25 0.73,1.87 l 18.45,-7.72 c -0.13,-0.32 -0.26,-0.64 -0.38,-1 z m 0.8,1.9 -18.06,8.58 c 0,0.07 0.07,0.15 0.11,0.22 v 0 c 0.17,0.37 0.36,0.73 0.55,1.1 v 0 l 0.17,0.32 17.63,-9.45 c -0.16,-0.31 -0.32,-0.62 -0.47,-0.93 z m 1,1.83 -17.17,10.27 0.3,0.48 v 0 c 0.24,0.38 0.49,0.77 0.74,1.14 L 23.61,53.71 c -0.19,-0.29 -0.38,-0.58 -0.56,-0.88 z m 1.16,1.73 -16.11,11.87 0.23,0.3 v 0 c 0.23,0.3 0.47,0.6 0.71,0.89 L 24.57,55 c -0.22,-0.27 -0.44,-0.55 -0.64,-0.83 z m 1.32,1.62 -14.9,13.35 c 0.45,0.49 0.9,1 1.37,1.45 L 26.26,56.94 c -0.25,-0.24 -0.49,-0.5 -0.72,-0.76 z m 1.47,1.49 -13.56,14.7 0.76,0.68 h 0.06 l 0.67,0.57 12.82,-15.35 C 27.51,58.07 27.24,57.83 26.99,57.6 Z m 1.58,1.31 -12.07,16 0.93,0.68 0.69,0.48 11.3,-16.5 z m 1.72,1.18 -10.49,17 0.1,0.07 v 0 c 0.5,0.3 1,0.6 1.52,0.88 v 0 l 9.66,-17.51 -0.9,-0.52 z m 1.82,1 -8.81,18 0.34,0.17 h 0.16 c 0.42,0.2 0.84,0.39 1.27,0.57 L 33.04,61.56 C 32.73,61.43 32.41,61.28 32.1,61.13 Z m 1.9,0.82 -7,18.72 c 0.63,0.24 1.25,0.45 1.89,0.66 l 6.13,-19 -1,-0.34 z m 2,0.63 -5.23,19.37 0.24,0.06 h 0.2 c 0.5,0.13 1,0.25 1.5,0.36 l 4.26,-19.55 c -0.34,-0.07 -0.67,-0.15 -1,-0.24 z m 2,0.44 -3.31,19.73 c 0.5,0.08 1,0.16 1.51,0.22 l 0.47,0.06 2.36,-19.86 c -0.35,0 -0.69,-0.09 -1,-0.15 z m 2.07,0.25 -1.41,20 h 2.03 l 0.47,-20 z m 3.16,0 -1,0.05 0.47,20 h 0.69 l 1.19,-0.06 h 0.12 l -1.42,-20 h -0.05 z m 2.07,-0.25 c -0.34,0.06 -0.69,0.11 -1,0.15 l 2.37,19.86 C 47.34,83 47.95,82.92 48.55,82.82 H 48.7 L 45.38,63.09 Z m 2,-0.44 c -0.33,0.09 -0.67,0.17 -1,0.24 l 4.26,19.55 h 0.42 l 0.76,-0.18 h 0.36 L 52.61,82 47.41,62.68 Z m 2,-0.63 -1,0.34 6.14,19 0.92,-0.31 h 0.2 l 0.77,-0.29 -7,-18.71 z m 1.9,-0.83 -0.94,0.44 7.92,18.39 c 0.35,-0.15 0.7,-0.3 1,-0.47 h 0.16 l 0.61,-0.29 -8.81,-18 z m 1.82,-1 c -0.3,0.18 -0.6,0.36 -0.9,0.52 l 9.67,17.51 0.18,-0.1 h 0.1 c 0.47,-0.26 0.92,-0.53 1.37,-0.8 L 53,60.3 Z M 54.77,59 c -0.28,0.21 -0.56,0.42 -0.85,0.61 l 11.3,16.5 c 0.25,-0.17 0.51,-0.35 0.75,-0.53 h 0.15 l 0.6,-0.45 z m 1.6,-1.34 c -0.25,0.24 -0.52,0.47 -0.78,0.69 L 68.41,73.7 h 0.34 c 0.34,-0.28 0.66,-0.57 1,-0.86 h 0.06 z m 1.47,-1.49 c -0.23,0.26 -0.47,0.52 -0.72,0.77 l 14.23,14 v 0 c 0.31,-0.32 0.62,-0.64 0.92,-1 v 0 l 0.32,-0.35 z m 1.32,-1.61 c -0.2,0.27 -0.42,0.55 -0.64,0.82 L 74.02,68 v 0 c 0.2,-0.26 0.41,-0.52 0.61,-0.79 v 0 l 0.36,-0.47 z m 1.16,-1.74 c -0.18,0.3 -0.37,0.59 -0.56,0.88 l 16.64,11.1 0.14,-0.21 v 0 c 0.31,-0.47 0.61,-0.95 0.9,-1.43 v 0 z m 1,-1.83 c -0.15,0.32 -0.31,0.63 -0.47,0.93 l 17.63,9.45 0.27,-0.51 c 0.14,-0.28 0.28,-0.55 0.41,-0.83 v 0 c 0,-0.11 0.1,-0.22 0.16,-0.33 L 61.3,51 h 0.02 z m 0.8,-1.9 c -0.12,0.32 -0.25,0.64 -0.38,1 l 18.45,7.71 0.29,-0.69 v 0 c 0.14,-0.36 0.27,-0.71 0.4,-1.06 l -18.8,-6.81 z m 0.6,-2 c -0.08,0.33 -0.18,0.67 -0.28,1 l 19.1,5.91 0.12,-0.41 v 0 l 0.33,-1.21 -19.38,-5 z m 0.42,-2 c 0,0.34 -0.12,0.68 -0.18,1 l 19.59,4 c 0.11,-0.57 0.22,-1.15 0.31,-1.72 V 48.12 L 63.1,45.05 Z m 0.22,-2.08 c 0,0.35 0,0.7 -0.08,1 l 19.88,2.13 c 0,-0.24 0.05,-0.47 0.07,-0.71 v 0 c 0,-0.38 0.06,-0.76 0.08,-1.14 v -0.06 l -20,-1.18 z m 20,-2.82 -20,0.71 V 42 l 20,0.23 v -0.43 0 -0.09 0 -0.17 0 -0.34 0 -0.44 0 -0.09 0 -0.15 0 z m -0.33,-4 -19.83,2.61 c 0,0.34 0.08,0.69 0.11,1 l 19.93,-1.66 v -0.47 0 c 0,-0.46 -0.1,-0.92 -0.16,-1.37 z m -0.71,-3.93 -19.49,4.5 c 0.08,0.33 0.15,0.68 0.21,1 L 82.72,34.2 82.54,33.25 v 0 l -0.06,-0.32 v 0 -0.06 0 l -0.06,-0.24 z m -1.09,-3.85 -19,6.36 c 0.11,0.33 0.21,0.66 0.3,1 l 19.25,-5.44 v 0 c -0.14,-0.49 -0.29,-1 -0.45,-1.46 v 0 c 0,-0.1 -0.07,-0.19 -0.1,-0.29 z m -1.45,-3.73 -18.27,8.17 c 0.14,0.32 0.27,0.64 0.4,1 L 80.54,26.58 C 80.3,25.96 80.04,25.34 79.77,24.73 V 24.68 Z M 77.97,21.11 60.61,31 c 0.17,0.3 0.34,0.61 0.49,0.92 l 17.85,-9 c -0.27,-0.52 -0.54,-1 -0.83,-1.55 v 0 z m -2.14,-3.37 -16.36,11.5 c 0.2,0.28 0.39,0.57 0.58,0.86 L 76.94,19.4 76.81,19.2 v 0 l -0.66,-1 v 0 l -0.27,-0.38 z m -2.45,-3.16 -15.19,13 c 0.22,0.26 0.44,0.53 0.66,0.81 L 74.61,16.14 74.5,15.99 v 0 l -0.13,-0.15 z m -2.77,-2.9 -13.89,14.4 0.74,0.74 14.57,-13.72 v 0 c -0.46,-0.49 -0.92,-1 -1.4,-1.42 z M 67.61,9 55.17,24.7 c 0.27,0.21 0.54,0.44 0.8,0.67 l 13.18,-15 -0.23,-0.21 v 0 z M 64.36,6.67 53.48,23.48 c 0.29,0.19 0.58,0.38 0.86,0.59 L 66.03,7.84 65.61,7.51 H 65.55 L 65.04,7.15 H 64.96 L 64.41,6.79 Z m -3.45,-2 -9.24,17.74 c 0.31,0.16 0.61,0.33 0.91,0.5 L 62.67,5.66 62.24,5.41 H 62.18 C 61.78,5.18 61.38,4.97 60.97,4.75 Z M 57.29,3 49.8,21.54 50.75,21.95 59.13,3.79 h -0.32 c -0.5,-0.23 -1,-0.44 -1.52,-0.65 z m -3.78,-1.3 -5.66,19.18 1,0.32 L 55.44,2.31 54.1,1.87 H 53.95 L 53.53,1.74 Z m -3.9,-0.94 -3.79,19.63 1,0.22 4.79,-19.43 H 51.38 L 50.56,0.99 H 50.33 C 50.1,0.93 49.88,0.89 49.66,0.85 Z m -4,-0.57 -1.83,19.91 c 0.35,0 0.7,0.07 1,0.12 l 2.88,-19.8 -0.5,-0.06 h -0.21 l -0.9,-0.1 H 45.67 Z M 41.61,0 v 20 h 1.06 L 43.61,0 Z"
           id="path10914" />
      </g>
      <path
         class="cls-2"
         d="M 41.68,2 C 63.6,2 81.37,19.76 81.38,41.68 81.38,63.6 63.62,81.37 41.7,81.38 19.78,81.38 2.01,63.62 2,41.7 2.03,19.79 19.77,2.04 41.68,2 m 0,-2 C 18.66,0 0,18.68 0,41.7 0,64.72 18.68,83.39 41.7,83.38 64.72,83.38 83.37,64.72 83.38,41.7 83.39,18.68 64.72,0 41.7,0 c 0,0 -0.01,0 -0.02,0 z"
         id="path10918" />
      <g
         class="cls-1"
         id="g10922">
        <path
           class="cls-6"
           d="m 77.7,41.7 c 0,19.88 -16.12,36 -36,36 -19.88,0 -36,-16.12 -36,-36 0,-19.88 16.12,-36 36,-36 19.88,0 36,16.12 36,36 z"
           id="path10920" />
      </g>
      <g
         id="g10928">
        <path
           class="cls-5"
           d="m 41.68,69.83 c -15.54,0 -28.13,-12.59 -28.13,-28.13 0,-15.54 12.59,-28.13 28.13,-28.13 15.54,0 28.13,12.59 28.13,28.13 v 0 C 69.8,57.23 57.21,69.82 41.68,69.83 Z"
           id="path10924" />
        <path
           class="cls-3"
           d="M 41.68,16.58 C 55.56,16.55 66.84,27.77 66.87,41.65 66.9,55.53 55.68,66.81 41.8,66.84 27.92,66.87 16.64,55.65 16.61,41.77 c 0,-0.02 0,-0.05 0,-0.07 0.02,-13.87 11.25,-25.1 25.12,-25.12 m 0,-6 C 24.54,10.55 10.58,24.47 10.55,41.66 10.52,58.85 24.44,72.81 41.63,72.84 58.82,72.87 72.78,58.95 72.81,41.76 c 0,-0.02 0,-0.04 0,-0.06 0,-17.19 -13.93,-31.12 -31.12,-31.12 0,0 0,0 0,0 h 0.05 z"
           id="path10926" />
      </g>
    </g>
  </g>
  <path
     class="cls-1"
     d="M 81.881866,41.700117 A 40.192341,40.192341 0 1 1 41.679886,1.4981347 40.1827,40.1827 0 0 1 81.881866,41.700117 Z"
     id="path9749"
     style="fill:none;fill-opacity:1;stroke:#fcfcfc;stroke-width:2.99626;stroke-dasharray:none;stroke-opacity:1;opacity:1" />
</svg>
