<?xml version="1.0" encoding="UTF-8"?>
<svg id="Layer_2" data-name="Layer 2" xmlns="http://www.w3.org/2000/svg" width="47.38" height="47.38" viewBox="0 0 47.38 47.38">
  <defs>
    <style>
      .cls-1 {
        fill: #3ed8d2;
      }

      .cls-1, .cls-2 {
        stroke-width: 0px;
      }

      .cls-2 {
        fill: #fff;
      }
    </style>
  </defs>
  <g id="Layer_1-2" data-name="Layer 1">
    <g>
      <g id="B-2">
        <path class="cls-2" d="m23.69,0c13.08,0,23.69,10.61,23.69,23.69s-10.61,23.69-23.69,23.69S0,36.77,0,23.69h0C0,10.61,10.61,0,23.69,0Z"/>
      </g>
      <path class="cls-1" d="m33.9,30.01c.07,2.47-1.01,4.83-2.93,6.39-2.15,1.69-4.83,2.56-7.56,2.44h-9.91V8.53h9.57c2.43-.12,4.84.54,6.87,1.89,1.64,1.17,2.59,3.08,2.52,5.09.02,1.58-.51,3.11-1.5,4.34-1.02,1.29-2.42,2.22-4,2.67v.11c1.92.15,3.72,1,5.07,2.37,1.25,1.37,1.92,3.16,1.87,5.01Zm-6.77-13.54c.05-1.09-.45-2.14-1.33-2.79-1.2-.74-2.6-1.09-4-1h-3.26v8.38h3.23c1.43.1,2.86-.33,4-1.2.94-.87,1.44-2.11,1.36-3.39Zm1.48,13.41c.06-1.32-.51-2.59-1.55-3.41-1.38-.91-3.03-1.33-4.68-1.21h-3.84v9.42h4.24c1.52.09,3.03-.38,4.24-1.31,1.05-.85,1.64-2.14,1.59-3.49Z"/>
    </g>
  </g>
</svg>