<?xml version="1.0" encoding="UTF-8" standalone="no"?>
<svg
   id="Layer_2"
   data-name="Layer 2"
   width="34.33"
   height="55.29"
   viewBox="0 0 34.33 55.29"
   version="1.1"
   sodipodi:docname="down-pressed.svg"
   inkscape:version="1.2.2 (732a01da63, 2022-12-09)"
   xmlns:inkscape="http://www.inkscape.org/namespaces/inkscape"
   xmlns:sodipodi="http://sodipodi.sourceforge.net/DTD/sodipodi-0.dtd"
   xmlns="http://www.w3.org/2000/svg"
   xmlns:svg="http://www.w3.org/2000/svg">
  <sodipodi:namedview
     id="namedview17619"
     pagecolor="#ffffff"
     bordercolor="#000000"
     borderopacity="0.25"
     inkscape:showpageshadow="2"
     inkscape:pageopacity="0.0"
     inkscape:pagecheckerboard="0"
     inkscape:deskcolor="#d1d1d1"
     showgrid="false"
     inkscape:zoom="14.722373"
     inkscape:cx="14.501739"
     inkscape:cy="27.678962"
     inkscape:window-width="1920"
     inkscape:window-height="1001"
     inkscape:window-x="-9"
     inkscape:window-y="-9"
     inkscape:window-maximized="1"
     inkscape:current-layer="Layer_2" />
  <defs
     id="defs17602">
    <style
       id="style17600">
      .cls-1 {
        fill: #edf4f4;
      }

      .cls-1, .cls-2, .cls-3, .cls-4, .cls-5 {
        stroke-width: 0px;
      }

      .cls-2 {
        fill: #e8e8e8;
      }

      .cls-3 {
        fill: #e3e3e3;
      }

      .cls-4 {
        fill: #ebebeb;
      }

      .cls-5 {
        fill: #f0f0f0;
      }
    </style>
  </defs>
  <g
     id="Layer_1-2"
     data-name="Layer 1"
     style="display:none">
    <g
       id="Down">
      <g
         id="g17608">
        <path
           class="cls-4"
           d="m 17.17,51.21 c -7.14,0 -12.75,-1.32 -13,-3.08 0,-0.05 0,-0.09 0,-0.14 V 13.77 l 13,-13.06 13.06,13.06 v 34.38 c -0.32,1.74 -5.93,3.06 -13.06,3.06 z"
           id="path17604" />
        <path
           class="cls-1"
           d="M 17.17,1.41 29.73,14 v 34 c 0,0 0,0.04 0,0.06 -0.19,1.12 -4.66,2.66 -12.55,2.66 -7.89,0 -12.37,-1.55 -12.57,-2.66 0,-0.02 0,-0.05 0,-0.07 V 14 L 17.17,1.41 M 17.17,0 3.6,13.56 V 48 48 c 0,0.08 0,0.15 0,0.23 0.41,2.33 7,3.49 13.54,3.49 6.54,0 13.14,-1.16 13.55,-3.49 0,-0.08 0,-0.15 0,-0.23 V 13.56 Z"
           id="path17606" />
      </g>
      <path
         class="cls-5"
         d="m 30.73,48 2.75,2.77 C 34.03,49.95 34.33,48.99 34.33,48 V 17.18 l -3.6,-3.62 z"
         id="path17610" />
      <path
         class="cls-2"
         d="m 30.71,48.22 c -0.41,2.33 -7,3.49 -13.54,3.49 -6.54,0 -13.17,-1.16 -13.55,-3.49 0,-0.08 0,-0.15 0,-0.23 l -2.8,2.77 c 0.93,1.36 2.74,2.7 6.17,3.52 3.34,0.72 6.76,1.06 10.18,1 3.42,0.06 6.83,-0.28 10.17,-1 3.43,-0.82 5.24,-2.16 6.14,-3.52 L 30.73,48 c 0,0.07 0,0.15 -0.02,0.22 z"
         id="path17612" />
      <path
         class="cls-3"
         d="M 3.6,48 V 48 13.56 L 0,17.18 v 31.65 l 0.09,0.24 c 0.14,0.6 0.39,1.17 0.73,1.69 z"
         id="path17614" />
    </g>
  </g>
  <g
     id="Down-2"
     style="fill:#fba550;fill-opacity:1">
    <g
       id="g7327"
       style="fill:#fba550;fill-opacity:1">
      <path
         class="cls-1"
         d="m 17.17,51.21 c -7.14,0 -12.75,-1.32 -13,-3.08 a 0.78,0.78 0 0 1 0,-0.14 V 13.77 l 13,-13.06 13.06,13.06 V 48 c 0,0 0,0.09 0,0.15 -0.32,1.74 -5.93,3.06 -13.06,3.06 z"
         id="path7323"
         style="fill:#fba550;fill-opacity:1" />
      <path
         class="cls-2"
         d="M 17.17,1.41 29.73,14 v 34 a 0.13,0.13 0 0 1 0,0.06 c -0.19,1.12 -4.66,2.66 -12.55,2.66 -7.89,0 -12.37,-1.55 -12.57,-2.66 a 0.56,0.56 0 0 0 0,-0.07 V 14 L 17.17,1.41 M 17.17,0 3.6,13.56 V 48 48 a 2,2 0 0 0 0,0.23 c 0.41,2.33 7,3.49 13.54,3.49 6.54,0 13.14,-1.16 13.55,-3.49 a 2,2 0 0 0 0,-0.23 V 13.56 Z"
         id="path7325"
         style="fill:#fba550;fill-opacity:1" />
    </g>
    <path
       class="cls-6"
       d="m 30.73,48 2.75,2.77 A 5,5 0 0 0 34.33,48 V 17.18 l -3.6,-3.62 z"
       id="path7329"
       style="fill:#fba550;fill-opacity:1" />
    <path
       class="cls-7"
       d="m 30.71,48.22 c -0.41,2.33 -7,3.49 -13.54,3.49 C 10.63,51.71 4,50.55 3.62,48.22 a 2,2 0 0 1 0,-0.23 l -2.8,2.77 c 0.93,1.36 2.74,2.7 6.17,3.52 a 44.55,44.55 0 0 0 10.18,1 44.84,44.84 0 0 0 10.17,-1 c 3.43,-0.82 5.24,-2.16 6.14,-3.52 L 30.73,48 a 2,2 0 0 1 -0.02,0.22 z"
       id="path7331"
       style="fill:#fba550;fill-opacity:1" />
    <path
       class="cls-4"
       d="M 3.6,48 V 48 13.56 L 0,17.18 v 31.65 l 0.09,0.24 a 5.22,5.22 0 0 0 0.73,1.69 z"
       id="path7333"
       style="fill:#fba550;fill-opacity:1" />
  </g>
</svg>
