<?xml version="1.0" encoding="UTF-8" standalone="no"?>
<svg
   id="Layer_2"
   data-name="Layer 2"
   width="55.32"
   height="34.36"
   viewBox="0 0 55.32 34.36"
   version="1.1"
   sodipodi:docname="left-pressed.svg"
   inkscape:version="1.2.2 (732a01da63, 2022-12-09)"
   xmlns:inkscape="http://www.inkscape.org/namespaces/inkscape"
   xmlns:sodipodi="http://sodipodi.sourceforge.net/DTD/sodipodi-0.dtd"
   xmlns="http://www.w3.org/2000/svg"
   xmlns:svg="http://www.w3.org/2000/svg">
  <sodipodi:namedview
     id="namedview18191"
     pagecolor="#ffffff"
     bordercolor="#000000"
     borderopacity="0.25"
     inkscape:showpageshadow="2"
     inkscape:pageopacity="0.0"
     inkscape:pagecheckerboard="0"
     inkscape:deskcolor="#d1d1d1"
     showgrid="false"
     inkscape:zoom="11.845169"
     inkscape:cx="33.220295"
     inkscape:cy="1.0552826"
     inkscape:window-width="1920"
     inkscape:window-height="1001"
     inkscape:window-x="-9"
     inkscape:window-y="-9"
     inkscape:window-maximized="1"
     inkscape:current-layer="Layer_2" />
  <defs
     id="defs18174">
    <style
       id="style18172">
      .cls-1 {
        fill: #d6d6d6;
      }

      .cls-1, .cls-2, .cls-3, .cls-4, .cls-5 {
        stroke-width: 0px;
      }

      .cls-2 {
        fill: #dbdbdb;
      }

      .cls-3 {
        fill: #edf4f4;
      }

      .cls-4 {
        fill: #e5e5e5;
      }

      .cls-5 {
        fill: #ebebeb;
      }
    </style>
  </defs>
  <g
     id="Layer_1-2"
     data-name="Layer 1"
     style="display:none">
    <g
       id="left">
      <g
         id="g18180">
        <path
           class="cls-5"
           d="M 7.34,30.24 C 5.52,30.24 4.09,24.5 4.09,17.18 4.09,9.86 5.52,4.12 7.34,4.12 H 41.55 L 54.62,17.18 41.55,30.24 Z"
           id="path18176" />
        <path
           class="cls-3"
           d="M 41.35,4.62 53.91,17.18 41.35,29.74 h -34 C 6.2,29.74 4.6,24.96 4.6,17.18 4.6,9.4 6.19,4.62 7.34,4.62 h 34 m 0.41,-1 H 7.34 c -5,0 -5,27.12 0,27.12 H 41.76 L 55.32,17.17 41.76,3.62 v 0 z"
           id="path18178" />
      </g>
      <path
         class="cls-2"
         d="M 41.76,3.62 38.16,0 H 7.34 C 6.35,0 5.38,0.29 4.56,0.84 l 2.78,2.78 z"
         id="path18182" />
      <path
         class="cls-1"
         d="m 7.34,3.62 v 0 L 4.56,0.85 C 3.19,1.78 1.88,3.58 1.03,6.99 c -1.37,6.72 -1.37,13.66 0,20.38 0.85,3.4 2.16,5.21 3.53,6.14 l 2.78,-2.77 c -4.99,0 -4.99,-27.12 0,-27.12 z"
         id="path18184" />
      <path
         class="cls-4"
         d="m 7.34,30.74 -2.78,2.77 c 0.82,0.55 1.79,0.84 2.78,0.85 h 30.82 l 3.6,-3.62 z"
         id="path18186" />
    </g>
  </g>
  <g
     id="left-8"
     style="fill:#fba550;fill-opacity:1"
     transform="translate(1.8039691e-5,-93.68)">
    <g
       id="g7355"
       style="fill:#fba550;fill-opacity:1">
      <path
         class="cls-1"
         d="m 7.34,123.92 c -1.82,0 -3.25,-5.74 -3.25,-13.06 0,-7.32 1.43,-13.06 3.25,-13.06 h 34.21 l 13.07,13.06 -13.07,13.06 z"
         id="path7351"
         style="fill:#fba550;fill-opacity:1" />
      <path
         class="cls-2"
         d="m 41.35,98.3 12.56,12.56 -12.56,12.56 h -34 C 6.2,123.42 4.6,118.64 4.6,110.86 4.6,103.08 6.19,98.3 7.34,98.3 h 34 m 0.41,-1 H 7.34 c -5,0 -5,27.12 0,27.12 H 41.76 L 55.32,110.85 41.76,97.3 Z"
         id="path7353"
         style="fill:#fba550;fill-opacity:1" />
    </g>
    <path
       class="cls-3"
       d="m 41.76,97.3 -3.6,-3.62 H 7.34 a 5.06,5.06 0 0 0 -2.78,0.84 l 2.78,2.78 z"
       id="path7357"
       style="fill:#fba550;fill-opacity:1" />
    <path
       class="cls-5"
       d="m 7.34,97.3 v 0 L 4.56,94.53 c -1.37,0.93 -2.68,2.73 -3.53,6.14 a 50.92,50.92 0 0 0 0,20.38 c 0.85,3.4 2.16,5.21 3.53,6.14 l 2.78,-2.77 c -4.99,0 -4.99,-27.12 0,-27.12 z"
       id="path7359"
       style="fill:#fba550;fill-opacity:1" />
    <path
       class="cls-9"
       d="m 7.34,124.42 -2.78,2.77 a 5.08,5.08 0 0 0 2.78,0.85 h 30.82 l 3.6,-3.62 z"
       id="path7361"
       style="fill:#fba550;fill-opacity:1" />
  </g>
</svg>
