<?xml version="1.0" encoding="UTF-8" standalone="no"?>
<svg
   id="Layer_2"
   data-name="Layer 2"
   width="55.32"
   height="34.36"
   viewBox="0 0 55.32 34.36"
   version="1.1"
   sodipodi:docname="right-pressed.svg"
   inkscape:version="1.2.2 (732a01da63, 2022-12-09)"
   xmlns:inkscape="http://www.inkscape.org/namespaces/inkscape"
   xmlns:sodipodi="http://sodipodi.sourceforge.net/DTD/sodipodi-0.dtd"
   xmlns="http://www.w3.org/2000/svg"
   xmlns:svg="http://www.w3.org/2000/svg">
  <sodipodi:namedview
     id="namedview18763"
     pagecolor="#ffffff"
     bordercolor="#000000"
     borderopacity="0.25"
     inkscape:showpageshadow="2"
     inkscape:pageopacity="0.0"
     inkscape:pagecheckerboard="0"
     inkscape:deskcolor="#d1d1d1"
     showgrid="false"
     inkscape:zoom="11.845169"
     inkscape:cx="6.7115972"
     inkscape:cy="17.770959"
     inkscape:window-width="1920"
     inkscape:window-height="1001"
     inkscape:window-x="-9"
     inkscape:window-y="-9"
     inkscape:window-maximized="1"
     inkscape:current-layer="Layer_2" />
  <defs
     id="defs18746">
    <style
       id="style18744">
      .cls-1 {
        fill: #edf4f4;
      }

      .cls-1, .cls-2, .cls-3, .cls-4, .cls-5 {
        stroke-width: 0px;
      }

      .cls-2 {
        fill: #e8e8e8;
      }

      .cls-3 {
        fill: #ebebeb;
      }

      .cls-4 {
        fill: #f0f0f0;
      }

      .cls-5 {
        fill: #e6e6e6;
      }
    </style>
  </defs>
  <g
     id="Layer_1-2"
     data-name="Layer 1"
     style="display:none">
    <g
       id="Right">
      <g
         id="g18752">
        <path
           class="cls-3"
           d="M 13.77,30.24 0.71,17.18 13.77,4.12 H 48 c 1.81,0 3.23,5.74 3.23,13.06 0,7.32 -1.44,13.06 -3.23,13.06 z"
           id="path18748" />
        <path
           class="cls-1"
           d="m 48,4.62 c 1.14,0 2.73,4.78 2.73,12.56 0,7.78 -1.61,12.56 -2.73,12.56 H 14 L 1.41,17.18 14,4.62 h 34 m 0,-1 H 13.56 L 0,17.18 13.56,30.74 H 48 c 5,0 5,-27.12 0,-27.12 z"
           id="path18750" />
      </g>
      <path
         class="cls-5"
         d="M 48,3.62 50.76,0.85 C 49.94,0.3 48.98,0.01 48,0 H 17.17 l -3.61,3.68 z"
         id="path18754" />
      <path
         class="cls-2"
         d="M 48,30.74 H 13.56 l 3.6,3.62 h 32.32 l 0.34,-0.35 c 0.32,-0.13 0.63,-0.3 0.92,-0.5 z"
         id="path18756" />
      <path
         class="cls-4"
         d="M 50.74,0.85 48,3.62 c 5,0 5,27.12 0,27.12 l 2.76,2.77 c 1.37,-0.93 2.71,-2.74 3.55,-6.14 0.71,-3.35 1.05,-6.77 1,-10.19 0.05,-3.42 -0.28,-6.84 -1,-10.19 -0.86,-3.4 -2.2,-5.21 -3.57,-6.14 z"
         id="path18758" />
    </g>
  </g>
  <g
     id="Right-4"
     style="fill:#fba550;fill-opacity:1"
     transform="translate(0,-57.32)">
    <g
       id="g7342"
       style="fill:#fba550;fill-opacity:1">
      <path
         class="cls-1"
         d="M 13.77,87.56 0.71,74.5 13.77,61.44 H 48 c 1.81,0 3.23,5.74 3.23,13.06 0,7.32 -1.44,13.06 -3.23,13.06 z"
         id="path7338"
         style="fill:#fba550;fill-opacity:1" />
      <path
         class="cls-2"
         d="m 48,61.94 c 1.14,0 2.73,4.78 2.73,12.56 0,7.78 -1.61,12.56 -2.73,12.56 H 14 L 1.41,74.5 14,61.94 h 34 m 0,-1 H 13.56 L 0,74.5 13.56,88.06 H 48 c 5,0 5,-27.12 0,-27.12 z"
         id="path7340"
         style="fill:#fba550;fill-opacity:1" />
    </g>
    <path
       class="cls-8"
       d="m 48,60.94 2.76,-2.77 A 5,5 0 0 0 48,57.32 H 17.17 L 13.56,61 Z"
       id="path7344"
       style="fill:#fba550;fill-opacity:1" />
    <path
       class="cls-7"
       d="M 48,88.06 H 13.56 l 3.6,3.62 h 32.32 l 0.34,-0.35 a 4.88,4.88 0 0 0 0.92,-0.5 z"
       id="path7346"
       style="fill:#fba550;fill-opacity:1" />
    <path
       class="cls-6"
       d="M 50.74,58.17 48,60.94 c 5,0 5,27.12 0,27.12 l 2.76,2.77 c 1.37,-0.93 2.71,-2.74 3.55,-6.14 a 45.59,45.59 0 0 0 1,-10.19 45.46,45.46 0 0 0 -1,-10.19 c -0.86,-3.4 -2.2,-5.21 -3.57,-6.14 z"
       id="path7348"
       style="fill:#fba550;fill-opacity:1" />
  </g>
</svg>
