<?xml version="1.0" encoding="UTF-8" standalone="no"?>
<svg
   id="Layer_2"
   data-name="Layer 2"
   width="34.33"
   height="55.32"
   viewBox="0 0 34.33 55.32"
   version="1.1"
   sodipodi:docname="up-pressed.svg"
   inkscape:version="1.2.2 (732a01da63, 2022-12-09)"
   xmlns:inkscape="http://www.inkscape.org/namespaces/inkscape"
   xmlns:sodipodi="http://sodipodi.sourceforge.net/DTD/sodipodi-0.dtd"
   xmlns="http://www.w3.org/2000/svg"
   xmlns:svg="http://www.w3.org/2000/svg">
  <sodipodi:namedview
     id="namedview15444"
     pagecolor="#ffffff"
     bordercolor="#000000"
     borderopacity="0.25"
     inkscape:showpageshadow="2"
     inkscape:pageopacity="0.0"
     inkscape:pagecheckerboard="0"
     inkscape:deskcolor="#d1d1d1"
     showgrid="false"
     inkscape:zoom="14.714389"
     inkscape:cx="14.441646"
     inkscape:cy="27.761941"
     inkscape:window-width="1920"
     inkscape:window-height="1001"
     inkscape:window-x="-9"
     inkscape:window-y="-9"
     inkscape:window-maximized="1"
     inkscape:current-layer="Layer_2" />
  <defs
     id="defs15427">
    <style
       id="style15425">
      .cls-1 {
        fill: #d6d6d6;
      }

      .cls-1, .cls-2, .cls-3, .cls-4, .cls-5 {
        stroke-width: 0px;
      }

      .cls-2 {
        fill: #dbdbdb;
      }

      .cls-3 {
        fill: #edf4f4;
      }

      .cls-4 {
        fill: #e3e3e3;
      }

      .cls-5 {
        fill: #ebebeb;
      }
    </style>
  </defs>
  <g
     id="Layer_1-2"
     data-name="Layer 1"
     style="display:none">
    <g
       id="Up">
      <g
         id="g15433">
        <path
           class="cls-5"
           d="M 4.1,41.56 V 7.34 c 0,0 0,-0.09 0,-0.14 L 4.18,7.01 4.26,6.88 c 0.49,-0.81 2.1,-1.52 4.53,-2 L 9.67,4.67 C 10,4.6 10.33,4.55 10.67,4.53 h 0.16 l 0.84,-0.14 1,-0.1 1,-0.09 2.37,-0.07 h 1 c 7.32,0 13.06,1.42 13.06,3.23 v 34.2 L 17.16,54.61 Z"
           id="path15429" />
        <path
           class="cls-3"
           d="m 17.16,4.61 c 8.09,0 12.57,1.62 12.57,2.73 v 34 L 17.16,53.91 4.6,41.35 v -34 0 -0.14 0 C 4.76,6.96 5.51,6.1 8.79,5.45 H 8.85 L 9.68,5.28 H 9.77 C 10.1,5.22 10.36,5.19 10.56,5.17 h 0.19 l 0.92,-0.12 v 0 l 1,-0.11 v 0 l 1,-0.08 h 3.38 m 0,-1 h -3.38 l -1,0.09 v 0 l -1,0.11 v 0 l -1,-0.05 h -0.06 c -0.32,0 -0.64,0.08 -0.94,0.13 H 9.6 C 9.3,4.14 9,4.25 8.72,4.32 v 0 C 6.3,4.79 4.47,5.53 3.86,6.54 3.81,6.59 3.78,6.65 3.75,6.71 v 0 0.18 c 0,0.06 0,0 0,0 v 0.15 c 0,0.07 0,0.14 0,0.21 V 41.77 L 17.16,55.32 30.73,41.77 v -34.43 0 c 0,-2.5 -6.8,-3.73 -13.57,-3.73 z"
           id="path15431" />
      </g>
      <path
         class="cls-2"
         d="m 8.67,4.36 v 0 L 9.55,4.17 h 0.12 c 0.3,-0.05 0.62,-0.1 0.94,-0.13 h 0.06 l 1,-0.13 v 0 l 1,-0.11 v 0 l 1,-0.08 h 3.49 c 6.77,0 13.56,1.23 13.56,3.73 L 33.47,4.68 C 32.58,3.2 30.77,1.86 27.34,1.01 24,0.28 20.58,-0.05 17.16,0 13.74,-0.06 10.32,0.27 6.98,1 4.05,1.71 2.27,2.79 1.26,4 L 3.83,6.57 C 4.45,5.56 6.27,4.82 8.67,4.35 Z"
         id="path15435" />
      <path
         class="cls-4"
         d="m 30.73,7.34 v 0 34.43 l 3.6,-3.63 V 7.34 c 0,-0.99 -0.3,-1.95 -0.85,-2.77 z"
         id="path15437" />
      <path
         class="cls-1"
         d="M 3.6,7.34 C 3.6,7.27 3.6,7.2 3.6,7.13 3.62,7.09 3.64,7.05 3.67,7.01 v 0 -0.18 0 C 3.69,6.77 3.73,6.72 3.77,6.67 L 1.26,4.01 C 0.44,4.92 0,6.11 0,7.34 v 30.81 l 3.6,3.62 z"
         id="path15439" />
    </g>
  </g>
  <g
     id="Up-5"
     style="fill:#fba550;fill-opacity:1"
     transform="translate(-36.329881,0.00736004)">
    <g
       id="g7314"
       style="fill:#fba550;fill-opacity:1">
      <path
         class="cls-1"
         d="M 40.43,41.55 V 7.33 a 0.78,0.78 0 0 1 0,-0.14 L 40.51,7 40.59,6.87 c 0.49,-0.81 2.1,-1.52 4.53,-2 L 46,4.66 a 7.42,7.42 0 0 1 1,-0.14 h 0.16 L 48,4.38 49,4.28 50,4.19 52.37,4.12 h 1 c 7.32,0 13.06,1.42 13.06,3.23 v 34.2 L 53.49,54.6 Z"
         id="path7310"
         style="display:inline;fill:#fba550;fill-opacity:1" />
      <path
         class="cls-2"
         d="m 53.49,4.6 c 8.09,0 12.57,1.62 12.57,2.73 v 34 L 53.49,53.9 40.93,41.34 v -34 0 -0.14 0 c 0.16,-0.25 0.91,-1.11 4.19,-1.76 h 0.06 l 0.83,-0.17 h 0.09 c 0.33,-0.06 0.59,-0.09 0.79,-0.11 h 0.19 L 48,5.04 v 0 l 1,-0.11 v 0 l 1,-0.08 h 1.25 c 0.33,0 0.65,0 1,0 h 0.13 1 m 0,-1 h -1.05 -0.12 -1 -0.16 c -0.33,0 -0.66,0 -1,0 H 50 l -1,0.09 v 0 l -1,0.11 v 0 L 47,4 H 46.94 C 46.62,4 46.3,4.08 46,4.13 h -0.07 c -0.3,0 -0.6,0.11 -0.88,0.18 v 0 C 42.63,4.78 40.8,5.52 40.19,6.53 A 0.56,0.56 0 0 0 40.08,6.7 v 0 c 0,0.06 0,0.12 0,0.18 0,0.06 0,0 0,0 v 0.15 a 1.65,1.65 0 0 0 0,0.21 V 41.76 L 53.49,55.31 67.06,41.76 v -34.43 0 c 0,-2.5 -6.8,-3.73 -13.57,-3.73 z"
         id="path7312"
         style="fill:#fba550;fill-opacity:1" />
    </g>
    <path
       class="cls-3"
       d="m 45,4.35 v 0 L 45.88,4.16 H 46 c 0.3,-0.05 0.62,-0.1 0.94,-0.13 H 47 L 48,3.9 v 0 l 1,-0.11 v 0 l 1,-0.08 h 0.14 1 0.17 1 0.12 1.06 c 6.77,0 13.56,1.23 13.56,3.73 L 69.8,4.67 C 68.91,3.19 67.1,1.85 63.67,1 A 44.3,44.3 0 0 0 53.49,0 44.12,44.12 0 0 0 43.31,1 C 40.38,1.71 38.6,2.79 37.59,4 l 2.57,2.57 C 40.78,5.56 42.6,4.82 45,4.35 Z"
       id="path7316"
       style="display:inline;fill:#fba550;fill-opacity:1" />
    <path
       class="cls-4"
       d="m 67.06,7.33 v 0 34.43 l 3.6,-3.63 V 7.33 A 4.94,4.94 0 0 0 69.81,4.56 Z"
       id="path7318"
       style="display:inline;fill:#fba550;fill-opacity:1" />
    <path
       class="cls-5"
       d="m 39.93,7.33 a 1.65,1.65 0 0 1 0,-0.21 A 0.83,0.83 0 0 1 40,7 c 0,-0.06 0,-0.12 0,-0.18 v 0 A 0.62,0.62 0 0 1 40.1,6.66 L 37.59,4 a 4.94,4.94 0 0 0 -1.26,3.33 v 30.81 l 3.6,3.62 z"
       id="path7320"
       style="display:inline;fill:#fba550;fill-opacity:1" />
  </g>
</svg>
