<?xml version="1.0" encoding="UTF-8"?>
<svg id="Layer_2" data-name="Layer 2" xmlns="http://www.w3.org/2000/svg" width="47.38" height="47.38" viewBox="0 0 47.38 47.38">
  <defs>
    <style>
      .cls-1 {
        fill: #ff8e43;
      }

      .cls-1, .cls-2 {
        stroke-width: 0px;
      }

      .cls-2 {
        fill: #fff;
      }
    </style>
  </defs>
  <g id="Layer_1-2" data-name="Layer 1">
    <g>
      <g id="X-2">
        <path class="cls-2" d="m23.68,0c13.08,0,23.69,10.6,23.7,23.68,0,13.08-10.6,23.69-23.68,23.7C10.62,47.39,0,36.78,0,23.7h0C0,10.61,10.6.01,23.68,0Z"/>
      </g>
      <path class="cls-1" d="m30.8,38.84l-6.41-11c-.12-.25-.22-.51-.3-.77-.06-.26-.13-.51-.22-.76h-.09c-.11.28-.19.52-.27.78-.09.26-.2.51-.33.75l-6.53,11h-6.12l10.14-15.21-9.26-15.1h6.18l5.41,10c.42.71.76,1.47,1,2.26h.08c.3-.79.53-1.31.65-1.56s2.21-3.79,6.27-10.66h5.68l-9.46,15,9.58,15.29-6-.02Z"/>
    </g>
  </g>
</svg>