<?xml version="1.0" encoding="UTF-8"?>
<svg id="Layer_2" data-name="Layer 2" xmlns="http://www.w3.org/2000/svg" width="83.4" height="83.4" viewBox="0 0 83.4 83.4">
  <defs>
    <style>
      .cls-1 {
        opacity: .06;
      }

      .cls-2, .cls-3, .cls-4, .cls-5, .cls-6 {
        stroke-width: 0px;
      }

      .cls-3 {
        fill: #dedede;
      }

      .cls-4 {
        fill: #d9d9d9;
      }

      .cls-5 {
        fill: #bfbfbf;
      }

      .cls-6 {
        fill: #e5e5e5;
      }
    </style>
  </defs>
  <g id="Layer_1-2" data-name="Layer 1">
    <g id="LS_pressed" data-name="LS pressed">
      <g>
        <path class="cls-6" d="m83.4,41.7c0,23.03-18.67,41.7-41.7,41.7S0,64.73,0,41.7C0,18.67,18.67,0,41.7,0c23.02,0,41.69,18.66,41.7,41.68v.02Z"/>
        <path class="cls-5" d="m41.7,0h-2.01l.94,20h1.07V0Zm-4,.19h-.31c-.56.06-1.12.13-1.67.21l2.84,19.79c.34,0,.69-.09,1-.12L37.7.19Zm-4,.57h-.51c-.48.1-1,.2-1.44.32l4.73,19.43c.34-.08.68-.16,1-.22L33.74.76h-.04Zm-3.88,1l-.8.24h-.11l-.93.31,6.6,18.88c.32-.11.65-.22,1-.31L29.86,1.71l-.04.05Zm-3.74,1.24c-.62.25-1.23.52-1.83.8l8.38,18.2c.31-.15.63-.29,1-.42L26.08,3Zm-3.63,1.7c-.59.31-1.17.63-1.75,1l10.09,17.24c.3-.18.6-.35.91-.51L22.45,4.7Zm-3.44,2.02c-.56.36-1.11.73-1.65,1.13l11.65,16.22c.29-.2.57-.4.87-.59L19.01,6.72Zm-3.25,2.33c-.53.42-1,.85-1.54,1.29l13.19,15c.26-.23.53-.45.8-.67l-12.45-15.62Zm-3,2.64c-.29.27-.56.55-.84.84h0l-.43.45,14.42,13.84c.23-.25.48-.5.73-.74l-13.89-14.39h.01Zm-2.75,2.91h-.13c-.38.45-.75.9-1.1,1.36h0l15.8,12.26c.21-.27.43-.54.66-.81l-15.23-12.81Zm-2.45,3.16l-.16.24h0c-.32.46-.62.92-.92,1.39l16.9,10.7c.18-.29.38-.59.58-.87L7.56,17.76Zm-2.14,3.38l-.41.86h0l-.49.93,17.85,9c.16-.31.32-.62.5-.92L5.42,21.14Zm-1.8,3.57c-.07.15-.14.3-.2.45h0v.06h0s0,.04,0,.06h0c-.18.42-.36.84-.52,1.27l18.63,7.26c.13-.32.26-.64.4-1L3.62,24.71Zm-1.46,3.72c-.09.27-.17.54-.26.81h0c-.06.18-.11.36-.16.55l19.25,5.43c.09-.33.19-.67.3-1L2.29,27.87l-.13.56Zm-1.08,3.85c-.07.53-.24,1.06-.34,1.59,0,.13,0,.25-.07.37l19.69,3.55c.06-.34.13-.68.2-1L1.08,32.28Zm-.71,3.94c-.06.42-.11.85-.15,1.28H.22c0,.2,0,.39-.05.59l19.93,1.66c0-.35.07-.7.11-1L.37,36.22ZM.01,40.2v1H.01v.06H.01v.24H.01v.4l20,.1v-1.09L.01,40.2Zm20,2.8L.08,44.2c0,.57.08,1.14.14,1.7H.22c0,.06,0,.12,0,.18l19.88-2.13c0-.34-.06-.69-.08-1v.05Zm.22,2.08L.51,48.17h0c.08.53.17,1.05.28,1.57h0v.16l19.59-4c-.06-.34-.13-.68-.18-1l.03.18Zm.42,2L1.28,52.08c.16.65.34,1.29.54,1.93l19.19-5.89c-.1-.33-.2-.67-.28-1l-.08-.04Zm.61,2l-18.77,6.83c.23.63.47,1.25.73,1.87l18.45-7.72c-.13-.32-.26-.64-.37-1l-.04.02Zm.79,1.9l-18.04,8.62.1.22h0c.18.37.36.73.55,1.1h0c0,.11.11.22.17.33l17.62-9.46c-.16-.31-.32-.62-.47-.93l.07.12Zm1,1.83l-17.12,10.31.29.48h0c.24.38.49.77.74,1.14l16.63-11.1c-.19-.29-.38-.58-.55-.88v.05Zm1.15,1.73l-16.05,11.91.22.3h0c.23.3.46.6.7.89l15.5-12.64c-.22-.27-.43-.55-.64-.83l.27.37Zm1.32,1.62l-14.84,13.39c.44.49.9,1,1.37,1.45l14.22-14.06c-.24-.24-.49-.5-.72-.76l-.03-.02Zm1.49,1.51l-13.52,14.72c.25.23.5.46.76.68h.06l.66.57,12.84-15.28c-.27-.22-.53-.46-.79-.69h0Zm1.62,1.33l-12.07,16c.3.23.61.46.93.68l.69.48,11.29-16.5c-.28-.2-.57-.4-.84-.61v-.05Zm1.72,1.18l-10.49,17,.1.07h0c.5.3,1,.6,1.52.88h0l9.67-17.51c-.31-.17-.61-.34-.9-.52l.1.08Zm1.82,1l-8.81,18,.33.17h.16c.42.2.84.39,1.26.57l8-18.3c-.32-.13-.64-.28-.94-.43h0Zm1.9.82l-7.06,18.73c.62.24,1.25.45,1.89.66l6.12-19-1-.34.05-.05Zm2,.63l-5.24,19.37.24.06h.21c.49.13.99.25,1.5.36l4.23-19.54c-.34-.07-.68-.15-1-.24h.06Zm2,.44l-3.33,19.74c.5.08,1,.16,1.51.22l.47.06,2.36-19.86c-.34,0-.69-.09-1-.15h0Zm2.07.25l-1.41,20h2.04l.46-20h-1.09Zm3.16,0l-1.05.05.48,20h.69l1.18-.06h.13l-1.43-20h0Zm2.08-.25c-.34.06-.69.11-1,.15l2.37,19.86c.61-.08,1.22-.16,1.83-.26h.15l-3.37-19.74h.02Zm2-.44c-.33.09-.67.17-1,.24l4.27,19.54h.43l.76-.18h.36l.39-.1-5.2-19.32v-.18Zm2-.63l-1,.34,6.13,19,.92-.31h.19l.78-.29-7.06-18.74h.04Zm1.91-.83l-1,.44,7.95,18.39c.35-.15.7-.3,1.05-.47h.15l.62-.29-8.81-18,.04-.07Zm1.81-1c-.29.18-.59.36-.89.52l9.66,17.51.18-.1h.1l1.37-.8-10.5-17,.08-.13Zm1.68-1.17c-.27.21-.56.42-.84.61l11.3,16.5.75-.53h.14l.6-.45-11.95-16.13Zm1.61-1.34c-.26.24-.52.47-.79.69l12.82,15.35h.34l1-.86h0l-13.37-15.18Zm1.47-1.49c-.23.26-.48.52-.72.77l14.23,14.06h0l.93-1h0c.1-.12.21-.24.32-.35,0,0-14.76-13.48-14.76-13.48Zm1.32-1.61c-.21.27-.42.55-.64.82l15.47,12.62h0c.21-.26.42-.52.62-.79h0c.11-.16.23-.31.35-.47,0,0-15.8-12.18-15.8-12.18Zm1.15-1.74c-.17.3-.36.59-.55.88l16.63,11.1.14-.21h0c.31-.47.61-.95.9-1.43h0s-17.12-10.34-17.12-10.34Zm1-1.83c-.14.32-.3.63-.46.93l17.62,9.45.27-.51.42-.83h0c.06-.11.11-.22.16-.33l-18.03-8.7h.02Zm.8-1.9c-.12.32-.24.64-.37,1l18.45,7.71c.1-.23.19-.46.28-.69h0c.13-.36.27-.71.4-1.06l-18.78-6.96h.02Zm.61-2c-.09.33-.18.67-.28,1l19.09,5.91c0-.14.08-.27.13-.41h0c.12-.4.23-.81.33-1.21l-19.37-5,.1-.29Zm.41-2c-.05.34-.11.67-.18,1l19.59,4c.12-.57.22-1.15.32-1.72,0-.08,0-.17,0-.25l-19.75-3.03h.02Zm.21-2.09c0,.35-.05.7-.09,1l19.89,2.13c0-.24,0-.47.07-.71h0c0-.38.06-.76.09-1.14v-.06l-19.96-1.22Zm20-2.82l-20,.71v1.11l20,.23v-.43h0v-.09h0v-.17h0v-.34h0v-.44h0v-.09h0v-.15h0c0-.09,0-.18,0-.27v-.07Zm-.33-4l-19.82,2.63c0,.34.08.69.11,1l19.93-1.66v-.47h0c0-.46-.1-.92-.15-1.37l-.07-.13Zm-.72-3.93l-19.48,4.5.21,1,19.68-3.56c-.06-.31-.12-.63-.19-.95h0l-.07-.32h0v-.06h0l-.06-.24-.09-.37Zm-1.08-3.85l-19,6.36c.11.33.21.66.3,1l19.25-5.44h0c-.14-.49-.29-1-.45-1.46h0c0-.1-.07-.19-.1-.29v-.17Zm-1.46-3.73l-18.25,8.18c.14.32.28.64.4,1l18.63-7.27c-.24-.62-.5-1.24-.77-1.85v-.06Zm-1.76-3.55l-17.42,9.88c.17.3.33.61.49.92l17.84-9c-.26-.52-.54-1-.82-1.55h0l-.09-.25Zm-2.14-3.37l-16.4,11.5c.2.28.4.57.58.86l16.9-10.7-.13-.2h0c-.21-.33-.43-.66-.65-1h0l-.26-.38-.04-.08Zm-2.45-3.16l-15.2,13c.23.26.45.53.66.81l15.8-12.27-.15-.13h0l-.12-.15-.99-1.26Zm-2.75-2.91l-13.91,14.4c.25.24.5.49.73.74l14.52-13.72h0c-.46-.49-.93-1-1.41-1.42h.07Zm-3.04-2.68l-12.45,15.7c.28.21.55.44.81.67l13.18-15-.23-.21h0c-.41-.35-.83-.7-1.26-1l-.05-.16Zm-3.24-2.29l-10.9,16.77c.29.19.58.38.86.59l11.66-16.23-.46-.33h0l-.54-.39h0l-.55-.36-.07-.05Zm-3.45-2l-9.24,17.72.91.5,10.08-17.27-.44-.25h-.05c-.4-.23-.81-.44-1.21-.66l-.05-.04Zm-3.64-1.71l-7.48,18.56.95.41L59.14,3.81h-.31c-.5-.23-1-.44-1.53-.65v-.16Zm-3.77-1.3l-5.66,19.18,1,.32,6.56-18.89-1.33-.44h-.15l-.42-.13v-.04Zm-3.89-.94l-3.78,19.63,1,.22L51.6,1.18h-.23l-.82-.24h-.24l-.67-.18Zm-4-.57l-1.84,19.91c.34,0,.69.07,1,.12L47.67.42l-.5-.06h-.16l-.9-.1h-.37l-.1-.07ZM41.64,0v20h1.05L43.63,0h-1.99Z"/>
      </g>
      <path class="cls-4" d="m41.7,2c21.92,0,39.69,17.77,39.69,39.69s-17.77,39.69-39.69,39.69S2.02,63.62,2.01,41.7C2.04,19.79,19.79,2.03,41.7,2M41.7,0C18.68,0,.01,18.68.02,41.7c0,23.02,18.68,41.69,41.7,41.68,23.02,0,41.67-18.66,41.68-41.68C83.41,18.68,64.74,0,41.72,0c0,0-.01,0-.02,0Z"/>
      <g class="cls-1">
        <path class="cls-2" d="m77.72,41.7c0,19.88-16.12,36-36,36S5.72,61.58,5.72,41.7,21.84,5.7,41.72,5.7s36,16.12,36,36Z"/>
      </g>
      <g>
        <path class="cls-3" d="m41.7,69.83c-15.54,0-28.13-12.58-28.14-28.12,0-15.54,12.58-28.13,28.12-28.14,15.54,0,28.13,12.58,28.14,28.12h0c-.02,15.54-12.59,28.12-28.12,28.14Z"/>
        <path class="cls-6" d="m41.7,16.58c13.88,0,25.13,11.25,25.13,25.13s-11.25,25.13-25.13,25.13-25.13-11.25-25.13-25.13c0,0,0,0,0,0,.02-13.87,11.26-25.11,25.13-25.12m0-6c-17.19,0-31.13,13.93-31.14,31.12,0,17.19,13.93,31.13,31.12,31.14s31.13-13.93,31.14-31.12v-.02c0-17.19-13.93-31.12-31.12-31.12Z"/>
      </g>
    </g>
  </g>
</svg>