<?xml version="1.0" encoding="UTF-8"?>
<svg id="Layer_2" data-name="Layer 2" xmlns="http://www.w3.org/2000/svg" width="83.38" height="83.38" viewBox="0 0 83.38 83.38">
  <defs>
    <style>
      .cls-1 {
        opacity: .06;
      }

      .cls-2 {
        fill: #262626;
      }

      .cls-2, .cls-3, .cls-4, .cls-5, .cls-6 {
        stroke-width: 0px;
      }

      .cls-3 {
        fill: #1a1a1a;
      }

      .cls-4 {
        fill: #404040;
      }

      .cls-5 {
        fill: #212121;
      }

      .cls-6 {
        fill: #fff;
      }
    </style>
  </defs>
  <g id="Layer_1-2" data-name="Layer 1">
    <g>
      <g>
        <path class="cls-3" d="m83.38,41.7c0,23.02-18.68,41.69-41.7,41.68C18.66,83.37,0,64.7,0,41.68,0,18.66,18.66,0,41.68,0c23.02-.01,41.69,18.64,41.7,41.66v.04Z"/>
        <path class="cls-4" d="m41.68,0h-2.01l1,20h1V0h.01Zm-4,.19h-.31c-.56.06-1.12.13-1.67.21l2.84,19.79c.35,0,.69-.09,1-.12L37.68.19Zm-3.95.57h-.52c-.48.1-1,.2-1.44.32l4.74,19.43c.33-.08.67-.16,1-.22L33.73.76Zm-3.89,1l-.8.24h-.12l-.93.31,6.59,18.88c.32-.11.65-.22,1-.31L29.84,1.71v.05Zm-3.77,1.24c-.62.25-1.23.52-1.84.8l8.38,18.2c.32-.15.63-.29,1-.42L26.07,3Zm-3.63,1.7c-.59.31-1.18.63-1.75,1l10.09,17.28c.29-.18.6-.35.9-.51L22.44,4.7Zm-3.45,2c-.56.36-1.11.73-1.66,1.13l11.7,16.22.86-.59L18.99,6.72v-.02Zm-3.25,2.33c-.52.42-1.03.85-1.53,1.29l13.18,15c.27-.23.53-.45.81-.67l-12.46-15.6v-.02Zm-3,2.64l-.84.84h0l-.43.45,14.56,13.71c.24-.25.49-.5.74-.74l-14.04-14.24v-.02Zm-2.75,2.93h0c-.38.45-.74.9-1.1,1.36h0l15.8,12.26c.21-.27.44-.54.66-.81l-15.2-13-.16.19Zm-2.45,3.16l-.15.23h0c-.32.46-.63.92-.93,1.39l16.9,10.7c.19-.29.38-.59.58-.87L7.54,17.76Zm-2.14,3.38l-.45.81h0c-.17.31-.33.62-.49.93l17.85,9c.15-.31.32-.62.49-.92L5.4,21.09v.05Zm-1.79,3.57l-.2.45h0v.06h0v.06h0c-.18.42-.35.84-.52,1.27l18.63,7.26c.13-.32.26-.64.4-1L3.61,24.71Zm-1.45,3.72c-.09.27-.18.54-.26.81h0c-.06.18-.11.36-.16.55l19.24,5.43c.1-.33.2-.66.31-1L2.29,27.87l-.13.56Zm-1.09,3.85c-.12.53-.23,1.06-.33,1.59,0,.13-.05.25-.07.37l19.68,3.55c.06-.34.13-.68.21-1L1.07,32.29h0Zm-.71,3.94l-.15,1.28H.21l-.06.59,19.93,1.66c0-.35.07-.7.12-1L.36,36.15v.07ZM.03,40.22v1H.03v.06H.03v.24H.03v.4l20-.23h0v-.78L.03,40.2v.02Zm20,2.82L.03,44.22c0,.57.08,1.14.13,1.7H.16v.18l19.89-2.13c0-.34-.07-.69-.09-1l.07.07Zm.23,2.08L.5,48.18H.5c.09.53.18,1.05.28,1.57h0v.17l19.59-4c-.07-.34-.13-.67-.18-1l.07.2Zm.41,2L1.3,52.12c.17.65.35,1.29.54,1.93l19.11-5.9c-.1-.33-.19-.67-.28-1v-.03Zm.61,2l-18.8,6.81c.23.63.47,1.25.73,1.87l18.45-7.72c-.13-.32-.26-.64-.38-1v.04Zm.8,1.9l-18.06,8.58c0,.07.07.15.11.22h0c.17.37.36.73.55,1.1h0l.17.32,17.63-9.45c-.16-.31-.32-.62-.47-.93l.07.16Zm1,1.83l-17.17,10.27.3.48h0c.24.38.49.77.74,1.14l16.66-11.03c-.19-.29-.38-.58-.56-.88l.03.02Zm1.16,1.73l-16.11,11.87.23.3h0c.23.3.47.6.71.89l15.5-12.64c-.22-.27-.44-.55-.64-.83l.31.41Zm1.32,1.62l-14.9,13.35c.45.49.9,1,1.37,1.45l14.23-14.06c-.25-.24-.49-.5-.72-.76l.02.02Zm1.47,1.49l-13.56,14.7.76.68h.06l.67.57,12.82-15.35c-.27-.22-.54-.46-.79-.69l.04.09Zm1.58,1.31l-12.07,16,.93.68.69.48,11.3-16.5-.85-.66Zm1.72,1.18l-10.49,17,.1.07h0c.5.3,1,.6,1.52.88h0l9.66-17.51-.9-.52.11.08Zm1.82,1l-8.81,18,.34.17h.16c.42.2.84.39,1.27.57l7.93-18.36c-.31-.13-.63-.28-.94-.43l.05.05Zm1.9.82l-7,18.72c.63.24,1.25.45,1.89.66l6.13-19-1-.34-.02-.04Zm2,.63l-5.23,19.37.24.06h.2c.5.13,1,.25,1.5.36l4.26-19.55c-.34-.07-.67-.15-1-.24h.03Zm2,.44l-3.31,19.73c.5.08,1,.16,1.51.22l.47.06,2.36-19.86c-.35,0-.69-.09-1-.15h-.03Zm2.07.25l-1.41,20h2.03l.47-20h-1.09Zm3.16,0l-1,.05.47,20h.69l1.19-.06h.12l-1.42-20h-.05Zm2.07-.25c-.34.06-.69.11-1,.15l2.37,19.86c.62-.08,1.23-.16,1.83-.26h.15l-3.32-19.73-.03-.02Zm2-.44c-.33.09-.67.17-1,.24l4.26,19.55h.42l.76-.18h.36l.46-.24-5.2-19.32-.06-.05Zm2-.63l-1,.34,6.14,19,.92-.31h.2l.77-.29-7-18.71-.03-.03Zm1.9-.83l-.94.44,7.92,18.39c.35-.15.7-.3,1-.47h.16l.61-.29-8.81-18,.06-.07Zm1.82-1c-.3.18-.6.36-.9.52l9.67,17.51.18-.1h.1c.47-.26.92-.53,1.37-.8l-10.49-17,.07-.13Zm1.7-1.17c-.28.21-.56.42-.85.61l11.3,16.5c.25-.17.51-.35.75-.53h.15l.6-.45-11.95-16.13Zm1.6-1.34c-.25.24-.52.47-.78.69l12.82,15.35h.34c.34-.28.66-.57,1-.86h.06l-13.44-15.18h0Zm1.47-1.49c-.23.26-.47.52-.72.77l14.23,14h0c.31-.32.62-.64.92-1h0l.32-.35-14.75-13.42h0Zm1.32-1.61c-.2.27-.42.55-.64.82l15.5,12.62h0c.2-.26.41-.52.61-.79h0l.36-.47-15.83-12.18h0Zm1.16-1.74c-.18.3-.37.59-.56.88l16.64,11.1.14-.21h0c.31-.47.61-.95.9-1.43h0l-17.12-10.34h0Zm1-1.83c-.15.32-.31.63-.47.93l17.63,9.45.27-.51c.14-.28.28-.55.41-.83h0c0-.11.1-.22.16-.33l-18.02-8.7h.02Zm.8-1.9c-.12.32-.25.64-.38,1l18.45,7.71.29-.69h0c.14-.36.27-.71.4-1.06l-18.8-6.81.04-.15Zm.6-2c-.08.33-.18.67-.28,1l19.1,5.91.12-.41h0l.33-1.21-19.38-5,.11-.29Zm.42-2c0,.34-.12.68-.18,1l19.59,4c.11-.57.22-1.15.31-1.72v-.25l-19.76-3.07.04.04Zm.22-2.08c0,.35,0,.7-.08,1l19.88,2.13c0-.24.05-.47.07-.71h0c0-.38.06-.76.08-1.14v-.06l-20-1.18.05-.04Zm20-2.82l-20,.71v1.1l20,.23v-.43h0v-.09h0v-.17h0v-.34h0v-.44h0v-.09h0v-.15h0v-.33Zm-.33-4l-19.83,2.61c0,.34.08.69.11,1l19.93-1.66v-.47h0c0-.46-.1-.92-.16-1.37l-.05-.11Zm-.71-3.93l-19.49,4.5c.08.33.15.68.21,1l19.68-3.56-.18-.95h0l-.06-.32h0v-.06h0l-.06-.24-.1-.37Zm-1.09-3.85l-19,6.36c.11.33.21.66.3,1l19.25-5.44h0c-.14-.49-.29-1-.45-1.46h0c0-.1-.07-.19-.1-.29v-.17Zm-1.45-3.73l-18.27,8.17c.14.32.27.64.4,1l18.63-7.27c-.24-.62-.5-1.24-.77-1.85v-.05Zm-1.81-3.57l-17.36,9.89c.17.3.34.61.49.92l17.85-9c-.27-.52-.54-1-.83-1.55h0l-.15-.26Zm-2.14-3.37l-16.36,11.5c.2.28.39.57.58.86l16.89-10.7-.13-.2h0l-.66-1h0l-.27-.38-.05-.08Zm-2.45-3.16l-15.19,13c.22.26.44.53.66.81l15.76-12.25-.11-.15h0l-.13-.15-.99-1.26Zm-2.77-2.9l-13.89,14.4.74.74,14.57-13.72h0c-.46-.49-.92-1-1.4-1.42h-.02Zm-3-2.68l-12.44,15.7c.27.21.54.44.8.67l13.18-15-.23-.21h0l-1.31-1.16Zm-3.25-2.33l-10.88,16.81c.29.19.58.38.86.59l11.69-16.23-.42-.33h-.06l-.51-.36h-.08l-.55-.36-.05-.12Zm-3.45-2l-9.24,17.74c.31.16.61.33.91.5l10.09-17.25-.43-.25h-.06c-.4-.23-.8-.44-1.21-.66l-.06-.08Zm-3.62-1.67l-7.49,18.54.95.41L59.13,3.79h-.32c-.5-.23-1-.44-1.52-.65v-.14Zm-3.78-1.3l-5.66,19.18,1,.32,6.59-18.89-1.34-.44h-.15l-.42-.13-.02-.04Zm-3.9-.94l-3.79,19.63,1,.22L51.61,1.18h-.23l-.82-.19h-.23c-.23-.06-.45-.1-.67-.14l-.05-.09Zm-4-.57l-1.83,19.91c.35,0,.7.07,1,.12L47.66.42l-.5-.06h-.21l-.9-.1h-.38l-.06-.07ZM41.61,0v20h1.06L43.61,0h-2Z"/>
      </g>
      <path class="cls-2" d="m41.68,2c21.92,0,39.69,17.76,39.7,39.68,0,21.92-17.76,39.69-39.68,39.7-21.92,0-39.69-17.76-39.7-39.68C2.03,19.79,19.77,2.04,41.68,2M41.68,0C18.66,0,0,18.68,0,41.7c0,23.02,18.68,41.69,41.7,41.68,23.02,0,41.67-18.66,41.68-41.68C83.39,18.68,64.72,0,41.7,0c0,0-.01,0-.02,0Z"/>
      <g class="cls-1">
        <path class="cls-6" d="m77.7,41.7c0,19.88-16.12,36-36,36S5.7,61.58,5.7,41.7,21.82,5.7,41.7,5.7s36,16.12,36,36Z"/>
      </g>
      <g>
        <path class="cls-5" d="m41.68,69.83c-15.54,0-28.13-12.59-28.13-28.13,0-15.54,12.59-28.13,28.13-28.13,15.54,0,28.13,12.59,28.13,28.13h0c-.01,15.53-12.6,28.12-28.13,28.13Z"/>
        <path class="cls-3" d="m41.68,16.58c13.88-.03,25.16,11.19,25.19,25.07.03,13.88-11.19,25.16-25.07,25.19-13.88.03-25.16-11.19-25.19-25.07,0-.02,0-.05,0-.07.02-13.87,11.25-25.1,25.12-25.12m0-6c-17.19-.03-31.15,13.89-31.18,31.08-.03,17.19,13.89,31.15,31.08,31.18,17.19.03,31.15-13.89,31.18-31.08,0-.02,0-.04,0-.06,0-17.19-13.93-31.12-31.12-31.12,0,0,0,0,0,0h.05Z"/>
      </g>
    </g>
  </g>
</svg>