<?xml version="1.0" encoding="UTF-8"?>
<svg id="Layer_2" data-name="Layer 2" xmlns="http://www.w3.org/2000/svg" width="171.15" height="62.86" viewBox="0 0 171.15 62.86">
  <defs>
    <style>
      .cls-1 {
        fill: #f2f2f2;
      }

      .cls-1, .cls-2, .cls-3 {
        stroke-width: 0px;
      }

      .cls-2 {
        fill: #fff;
      }

      .cls-3 {
        fill: #e5e5e5;
      }
    </style>
  </defs>
  <g id="Layer_1-2" data-name="Layer 1">
    <g id="LB_Pressed" data-name="LB Pressed">
      <path class="cls-1" d="m2.04,17.33l3.42,6.35c5.58-2.9,17.27-13.36,32.8-18.23,24.31-7.62,122.11,34.52,122,34.38s-.33-.47-.33-.47h0c-.1-.16-.21-.31-.32-.45l-.07-.08-.31-.41-.1-.1c-.09-.11-.2-.25-.31-.37-.04-.04-.08-.08-.11-.12-.1-.13-.21-.24-.33-.35-.04-.05-.08-.1-.12-.15-.12-.1-.22-.21-.32-.33l-.17-.16-.33-.32c-.07-.05-.13-.1-.18-.16-.1-.11-.22-.2-.34-.29-.06-.07-.13-.13-.2-.19-.12-.11-.23-.19-.35-.29l-.22-.19-.4-.29c-.08-.06-.16-.12-.25-.17-.12-.11-.24-.2-.37-.29l-.25-.19-.4-.27-.27-.21c-.15-.08-.29-.17-.42-.27l-.29-.18c-.16-.09-.31-.19-.45-.3-.1-.04-.2-.1-.29-.16-.18-.11-.35-.22-.53-.31-.09-.05-.17-.1-.25-.16-.27-.15-.56-.3-.83-.47C132.87,22.22,79.15-4.86,36.93.76,29.08,1.8,14.46,13.78,2.04,17.33Z"/>
      <g>
        <path class="cls-3" d="m4.52,24.19l.46-.19-.46.19Z"/>
        <path class="cls-3" d="m5.47,23.71l15.85,29.58c11.18-12.67,21.96-23,31.08-24.76,19.58-3.78,85.59,16.47,118.75,34.33h-.06c-8.63-7.67-5.84-15.56-10.84-23-.67-.28-97.77-41.93-121.98-34.37C22.72,10.36,11.04,20.84,5.46,23.72h0Z"/>
        <path class="cls-2" d="m4.98,23.97l.48-.25-.48.25Z"/>
      </g>
      <path class="cls-2" d="m20.6,54.1h0l.72-.8L5.42,23.71l-3.42-6.34c-.32.08-.68.17-1,.27s-.66.16-1,.23l3.49,6.53,16.38,30.54c.26-.27.49-.54.73-.84"/>
    </g>
  </g>
</svg>