<?xml version="1.0" encoding="UTF-8" standalone="no"?>
<svg
   width="80"
   height="73.333"
   version="1.1"
   id="svg27763"
   sodipodi:docname="xbox_lt_outline.svg"
   inkscape:version="1.2.2 (732a01da63, 2022-12-09)"
   xmlns:inkscape="http://www.inkscape.org/namespaces/inkscape"
   xmlns:sodipodi="http://sodipodi.sourceforge.net/DTD/sodipodi-0.dtd"
   xmlns="http://www.w3.org/2000/svg"
   xmlns:svg="http://www.w3.org/2000/svg">
  <sodipodi:namedview
     id="namedview27765"
     pagecolor="#ffffff"
     bordercolor="#000000"
     borderopacity="0.25"
     inkscape:showpageshadow="2"
     inkscape:pageopacity="0.0"
     inkscape:pagecheckerboard="0"
     inkscape:deskcolor="#d1d1d1"
     showgrid="false"
     inkscape:zoom="3.1796875"
     inkscape:cx="139.47912"
     inkscape:cy="51.105651"
     inkscape:window-width="1920"
     inkscape:window-height="1001"
     inkscape:window-x="-9"
     inkscape:window-y="-9"
     inkscape:window-maximized="1"
     inkscape:current-layer="svg27763" />
  <defs
     id="defs27757" />
  <g
     id="g27761"
     transform="matrix(1.6666667,0,0,1.6666667,-13.333333,-16.666667)">
    <path
       stroke="none"
       fill="#ffffff"
       d="M 15.7,54 Q 8,53.85 8,46 V 18 q 0,-8 8,-8 h 32 q 8,0 8,8 V 31.05 Q 55.65,40.3 48.95,47 q -6.8,6.8 -16.3,7 H 15.7 M 11,46 q 0,5 5,5 h 16 q 8.7,0 14.85,-6.15 5.8,-5.8 6.15,-13.8 V 18 q 0,-5 -5,-5 H 16 q -5,0 -5,5 V 46 M 37,36 V 23 h -5 v -4 h 14 v 4 H 41 V 36 H 37 M 18,19 h 4 v 13 h 8 v 4 H 18 V 19"
       id="path27759"
       style="fill:#a747eb;fill-opacity:1" />
  </g>
</svg>
