<?xml version="1.0" encoding="UTF-8" standalone="no"?>
<svg
   width="80"
   height="53.333"
   version="1.1"
   id="svg21046"
   sodipodi:docname="xbox_rb_outline.svg"
   inkscape:version="1.2.2 (732a01da63, 2022-12-09)"
   xmlns:inkscape="http://www.inkscape.org/namespaces/inkscape"
   xmlns:sodipodi="http://sodipodi.sourceforge.net/DTD/sodipodi-0.dtd"
   xmlns="http://www.w3.org/2000/svg"
   xmlns:svg="http://www.w3.org/2000/svg">
  <sodipodi:namedview
     id="namedview21048"
     pagecolor="#ffffff"
     bordercolor="#000000"
     borderopacity="0.25"
     inkscape:showpageshadow="2"
     inkscape:pageopacity="0.0"
     inkscape:pagecheckerboard="0"
     inkscape:deskcolor="#d1d1d1"
     showgrid="false"
     inkscape:zoom="6.359375"
     inkscape:cx="-4.009828"
     inkscape:cy="52.44226"
     inkscape:window-width="1920"
     inkscape:window-height="1001"
     inkscape:window-x="-9"
     inkscape:window-y="-9"
     inkscape:window-maximized="1"
     inkscape:current-layer="svg21046" />
  <defs
     id="defs21040" />
  <g
     id="g21044"
     transform="matrix(1.6666667,0,0,1.6666667,-13.333334,-26.666667)">
    <path
       stroke="none"
       fill="#FFFFFF"
       d="M 40,39 H 33 V 26 h 7 q 1.6,0 2.8,1.2 1.2,1.2 1.2,2.8 0,1.45 -0.9,2.5 0.9,1.1 0.9,2.5 0,1.65 -1.2,2.8 Q 41.6,39 40,39 m 0,-8 q 0.45,0 0.7,-0.3 L 41,30 40.7,29.3 Q 40.45,29 40,29 h -4 v 2 h 4 M 16,16 h 24 q 6.6,0 11.3,4.7 Q 56,25.4 56,32 v 8 q 0,8 -8,8 H 16 Q 8,48 8,40 V 24 q 0,-8 8,-8 m 24,20 q 0.45,0 0.7,-0.3 L 41,35 40.7,34.3 Q 40.45,34 40,34 h -4 v 2 h 4 M 16,19 q -5,0 -5,5 v 16 q 0,5 5,5 h 32 q 5,0 5,-5 V 32 Q 53,26.65 49.2,22.85 45.35,19 40,19 H 16 m 6,14 h 3.05 q 0.8,0 1.35,-0.6 Q 27,31.85 27,31 27,30.15 26.4,29.55 25.85,29 25,29 h -3 v 4 m 3,3 h -3 v 3 H 19 V 26 h 6 q 2.05,0 3.5,1.45 1.5,1.5 1.5,3.55 0,2.05 -1.5,3.5 L 30,39 H 27 L 26,36 V 35.9 L 25,36"
       id="path21042"
       style="fill:#477eeb;fill-opacity:1" />
  </g>
</svg>
