<?xml version="1.0" encoding="UTF-8" standalone="no"?>
<svg
   width="80"
   height="73.333"
   version="1.1"
   id="svg5716"
   sodipodi:docname="xbox_rt.svg"
   inkscape:version="1.2.2 (732a01da63, 2022-12-09)"
   xmlns:inkscape="http://www.inkscape.org/namespaces/inkscape"
   xmlns:sodipodi="http://sodipodi.sourceforge.net/DTD/sodipodi-0.dtd"
   xmlns="http://www.w3.org/2000/svg"
   xmlns:svg="http://www.w3.org/2000/svg">
  <sodipodi:namedview
     id="namedview5718"
     pagecolor="#ffffff"
     bordercolor="#000000"
     borderopacity="0.25"
     inkscape:showpageshadow="2"
     inkscape:pageopacity="0.0"
     inkscape:pagecheckerboard="0"
     inkscape:deskcolor="#d1d1d1"
     showgrid="false"
     inkscape:zoom="3.1796875"
     inkscape:cx="-14.152334"
     inkscape:cy="54.093366"
     inkscape:window-width="1920"
     inkscape:window-height="1001"
     inkscape:window-x="-9"
     inkscape:window-y="-9"
     inkscape:window-maximized="1"
     inkscape:current-layer="svg5716" />
  <defs
     id="defs5710" />
  <g
     id="g5714"
     transform="matrix(1.6666667,0,0,1.6666667,-13.333333,-16.666667)">
    <path
       stroke="none"
       fill="#FFFFFF"
       d="m 38,36 h 4 V 23 h 5 V 19 H 33 v 4 h 5 V 36 M 48.3,54 H 31.35 Q 21.85,53.8 15.05,47 8.35,40.3 8,31.05 V 18 q 0,-8 8,-8 h 32 q 8,0 8,8 v 28 q 0,7.85 -7.7,8 M 25,23 q 0.8,0 1.4,0.6 0.6,0.6 0.6,1.4 0,0.8 -0.55,1.35 l -0.1,0.1 Q 25.8,27 25,27 h -3 v -4 h 3 m -7,-4 v 17 h 4 v -5 h 3 l 2.5,5 h 4 L 28.45,29.9 29.2,29.25 29.25,29.2 Q 31,27.45 31,25 31,22.5 29.25,20.75 27.5,19 25,19 h -7"
       id="path5712"
       style="fill:#a747eb;fill-opacity:1" />
  </g>
  <rect
     style="fill:#a747eb;fill-rule:evenodd;stroke-width:4;stroke-linecap:square;stroke-linejoin:round;stroke-miterlimit:0"
     id="rect232"
     width="60.697788"
     height="41.828011"
     x="11.636364"
     y="9.1203928" />
</svg>
