<?xml version="1.0" encoding="UTF-8" standalone="no"?>
<svg
   width="37.619999"
   height="37.619999"
   version="1.1"
   id="svg10468"
   sodipodi:docname="xbox_button_view.svg"
   inkscape:version="1.2.2 (732a01da63, 2022-12-09)"
   xmlns:inkscape="http://www.inkscape.org/namespaces/inkscape"
   xmlns:sodipodi="http://sodipodi.sourceforge.net/DTD/sodipodi-0.dtd"
   xmlns="http://www.w3.org/2000/svg"
   xmlns:svg="http://www.w3.org/2000/svg">
  <sodipodi:namedview
     id="namedview10470"
     pagecolor="#ffffff"
     bordercolor="#000000"
     borderopacity="0.25"
     inkscape:showpageshadow="2"
     inkscape:pageopacity="0.0"
     inkscape:pagecheckerboard="0"
     inkscape:deskcolor="#d1d1d1"
     showgrid="false"
     inkscape:zoom="8.9935144"
     inkscape:cx="2.7241853"
     inkscape:cy="7.2830261"
     inkscape:window-width="1920"
     inkscape:window-height="1001"
     inkscape:window-x="-9"
     inkscape:window-y="-9"
     inkscape:window-maximized="1"
     inkscape:current-layer="svg10468" />
  <defs
     id="defs10462" />
  <g
     id="g10466"
     transform="matrix(0.78375,0,0,0.78375,1.73,1.73)">
    <path
       stroke="none"
       fill="#FFFFFF"
       d="m 17.792663,32.792663 1,1 h 15 l 1,-1 v -13 l -1,-1 h -15 l -1,1 v 13 m -7.9999995,-8 0.9999995,1 h 5 v -3 h -3 v -9.05 h 11 v 3.05 h 3 v -5 l -1,-1 h -15 l -0.9999995,1 v 13 m 35.9999995,-3 q 0,10 -7.05,16.95 -6.95,7.05 -16.95,7.05 -9.95,0 -16.9999995,-7.05 -7,-6.95 -7,-16.95 0,-9.95 7,-16.9999995 7.0499995,-7 16.9999995,-7 10,0 16.95,7 7.05,7.0499995 7.05,16.9999995 m -14,0 v 9 h -11 v -9 h 11"
       id="path10464"
       style="fill:#eb477e;fill-opacity:1" />
  </g>
</svg>
