<?xml version="1.0" encoding="UTF-8" standalone="no"?>
<svg
   width="37.619999"
   height="37.619999"
   version="1.1"
   id="svg22267"
   sodipodi:docname="xbox_button_menu_outline.svg"
   inkscape:version="1.2.2 (732a01da63, 2022-12-09)"
   xmlns:inkscape="http://www.inkscape.org/namespaces/inkscape"
   xmlns:sodipodi="http://sodipodi.sourceforge.net/DTD/sodipodi-0.dtd"
   xmlns="http://www.w3.org/2000/svg"
   xmlns:svg="http://www.w3.org/2000/svg">
  <sodipodi:namedview
     id="namedview22269"
     pagecolor="#ffffff"
     bordercolor="#000000"
     borderopacity="0.25"
     inkscape:showpageshadow="2"
     inkscape:pageopacity="0.0"
     inkscape:pagecheckerboard="0"
     inkscape:deskcolor="#d1d1d1"
     showgrid="false"
     inkscape:zoom="3.1796875"
     inkscape:cx="-25.316953"
     inkscape:cy="42.614251"
     inkscape:window-width="1920"
     inkscape:window-height="1001"
     inkscape:window-x="-9"
     inkscape:window-y="-9"
     inkscape:window-maximized="1"
     inkscape:current-layer="svg22267" />
  <defs
     id="defs22261" />
  <g
     id="g22265"
     transform="matrix(0.78375,0,0,0.78375,-6.27,-6.27)">
    <path
       stroke="none"
       fill="#ffffff"
       d="M 17.15,17.15 Q 11,23.3 11,32 11,40.75 17.15,46.85 23.3,53 32,53 40.75,53 46.85,46.85 53,40.75 53,32 53,23.3 46.85,17.15 40.75,11 32,11 23.3,11 17.15,17.15 M 56,32 Q 56,42 48.95,48.95 42,56 32,56 22.05,56 15,48.95 8,42 8,32 8,22.05 15,15 22.05,8 32,8 42,8 48.95,15 56,22.05 56,32 M 21,30 h 22 v 4 H 21 v -4 m 0,8 h 22 v 4 H 21 v -4 m 0,-16 h 22 v 4 H 21 v -4"
       id="path22263"
       style="fill:#eb477e;fill-opacity:1" />
  </g>
</svg>
