<?xml version="1.0" encoding="UTF-8" standalone="no"?>
<svg
   width="80"
   height="53.333"
   version="1.1"
   id="svg17647"
   sodipodi:docname="xbox_lb_outline.svg"
   inkscape:version="1.2.2 (732a01da63, 2022-12-09)"
   xmlns:inkscape="http://www.inkscape.org/namespaces/inkscape"
   xmlns:sodipodi="http://sodipodi.sourceforge.net/DTD/sodipodi-0.dtd"
   xmlns="http://www.w3.org/2000/svg"
   xmlns:svg="http://www.w3.org/2000/svg">
  <sodipodi:namedview
     id="namedview17649"
     pagecolor="#ffffff"
     bordercolor="#000000"
     borderopacity="0.25"
     inkscape:showpageshadow="2"
     inkscape:pageopacity="0.0"
     inkscape:pagecheckerboard="0"
     inkscape:deskcolor="#d1d1d1"
     showgrid="false"
     inkscape:zoom="4.4967572"
     inkscape:cx="17.679407"
     inkscape:cy="42.363862"
     inkscape:window-width="1920"
     inkscape:window-height="1001"
     inkscape:window-x="-9"
     inkscape:window-y="-9"
     inkscape:window-maximized="1"
     inkscape:current-layer="svg17647" />
  <defs
     id="defs17641" />
  <g
     id="g17645">
    <path
       stroke="none"
       fill="#FFFFFF"
       d="M 53.333333,38.333333 H 41.666667 V 16.666667 h 11.666666 q 2.666667,0 4.666667,2 2,2 2,4.666666 Q 60,25.75 58.5,27.5 q 1.5,1.833333 1.5,4.166667 0,2.75 -2,4.666666 -2,2 -4.666667,2 M 66.666667,0 Q 80,0 80,13.333333 V 40 Q 80,53.333333 66.666667,53.333333 H 13.333333 Q 0,53.333333 0,40 V 26.666667 q 0,-11 7.833333,-18.833334 Q 15.666667,0 26.666667,0 h 40 M 53.333333,25 q 0.75,0 1.166667,-0.5 L 55,23.333333 54.5,22.166667 q -0.416667,-0.5 -1.166667,-0.5 H 46.666667 V 25 h 6.666666 M 66.666667,5 h -40 Q 17.75,5 11.333333,11.416667 5,17.75 5,26.666667 V 40 q 0,8.333333 8.333333,8.333333 H 66.666667 Q 75,48.333333 75,40 V 13.333333 Q 75,5 66.666667,5 M 53.333333,33.333333 q 0.75,0 1.166667,-0.5 L 55,31.666667 54.5,30.5 Q 54.083333,30 53.333333,30 h -6.666666 v 3.333333 h 6.666666 m -26.666666,0 h 10 v 5 h -15 V 16.666667 h 5 v 16.666666"
       id="path17643"
       style="fill:#477eeb;fill-opacity:1;stroke-width:1.66667" />
  </g>
</svg>
