<?xml version="1.0" encoding="UTF-8" standalone="no"?>
<svg
   width="64"
   height="64"
   version="1.1"
   id="svg8906"
   sodipodi:docname="xbox_stick_top_r_outline.svg"
   inkscape:version="1.2.2 (732a01da63, 2022-12-09)"
   xmlns:inkscape="http://www.inkscape.org/namespaces/inkscape"
   xmlns:sodipodi="http://sodipodi.sourceforge.net/DTD/sodipodi-0.dtd"
   xmlns="http://www.w3.org/2000/svg"
   xmlns:svg="http://www.w3.org/2000/svg">
  <sodipodi:namedview
     id="namedview8908"
     pagecolor="#ffffff"
     bordercolor="#000000"
     borderopacity="0.25"
     inkscape:showpageshadow="2"
     inkscape:pageopacity="0.0"
     inkscape:pagecheckerboard="0"
     inkscape:deskcolor="#d1d1d1"
     showgrid="false"
     inkscape:zoom="11.313709"
     inkscape:cx="36.106638"
     inkscape:cy="42.912541"
     inkscape:window-width="1920"
     inkscape:window-height="1001"
     inkscape:window-x="-9"
     inkscape:window-y="-9"
     inkscape:window-maximized="1"
     inkscape:current-layer="svg8906" />
  <defs
     id="defs8900" />
  <g
     id="g8904">
    <path
       stroke="none"
       fill="#FFFFFF"
       d="M32 12 Q23.7 12 17.85 17.85 12 23.7 12 32 12 40.3 17.85 46.1 L17.85 46.15 Q23.7 52 32 52 40.3 52 46.1 46.15 L46.15 46.1 Q52 40.3 52 32 52 23.7 46.15 17.85 L46.1 17.85 Q40.3 12 32 12 M20.7 20.7 Q25.35 16 32 16 38.65 16 43.25 20.65 L43.65 21 Q48 25.6 48 32 48 38.65 43.35 43.25 L43.25 43.35 Q38.65 48 32 48 25.6 48 21 43.65 L20.65 43.25 Q16 38.65 16 32 16 25.35 20.7 20.7 L20.65 20.7 20.7 20.65 20.7 20.7 M56 32 Q56 42 48.95 48.95 42 56 32 56 22.05 56 15 48.95 8 42 8 32 8 22.05 15 15 22.05 8 32 8 42 8 48.95 15 56 22.05 56 32 M26 24 L26 40 30 40 30 36 34 36 36 40 40 40 37.1 34.35 37.2 34.25 37.25 34.2 Q39 32.45 39 30 39 27.5 37.25 25.75 L37.2 25.7 36 24.8 Q34.75 24.05 33.2 24 L26 24 M33 28 Q33.8 28 34.4 28.6 L34.45 28.6 Q35 29.15 35 30 35 30.8 34.45 31.35 L34.35 31.45 Q33.8 32 33 32 L30 32 30 28 33 28"
       id="path8902" />
  </g>
  <path
     stroke="none"
     fill="#ffffff"
     d="M 32,14 Q 23.7,14 17.85,19.85 12,25.7 12,34 q 0,8.3 5.85,14.1 v 0.05 Q 23.7,54 32,54 40.3,54 46.1,48.15 L 46.15,48.1 Q 52,42.3 52,34 52,25.7 46.15,19.85 H 46.1 Q 40.3,14 32,14 M 20.7,22.7 Q 25.35,18 32,18 q 6.65,0 11.25,4.65 L 43.65,23 Q 48,27.6 48,34 q 0,6.65 -4.65,11.25 l -0.1,0.1 Q 38.65,50 32,50 25.6,50 21,45.65 l -0.35,-0.4 Q 16,40.65 16,34 16,27.35 20.7,22.7 H 20.65 L 20.7,22.65 V 22.7 M 56,34 Q 56,44 48.95,50.95 42,58 32,58 22.05,58 15,50.95 8,44 8,34 8,24.05 15,17 22.05,10 32,10 42,10 48.95,17 56,24.05 56,34 M 26,26 v 16 h 4 v -4 h 4 l 2,4 h 4 l -2.9,-5.65 0.1,-0.1 0.05,-0.05 Q 39,34.45 39,32 39,29.5 37.25,27.75 L 37.2,27.7 36,26.8 Q 34.75,26.05 33.2,26 H 26 m 7,4 q 0.8,0 1.4,0.6 h 0.05 Q 35,31.15 35,32 q 0,0.8 -0.55,1.35 l -0.1,0.1 Q 33.8,34 33,34 h -3 v -4 h 3"
     id="path8902-3"
     style="display:none;fill:#929292;fill-opacity:1" />
  <path
     id="path6192"
     style="display:inline;fill:#ffffff;fill-opacity:1;fill-rule:evenodd;stroke:none;stroke-width:0;stroke-linecap:square;stroke-linejoin:round;stroke-miterlimit:0;stroke-dasharray:none"
     d="M 32,14 A 20,20 0 0 0 12,34 20,20 0 0 0 32,54 20,20 0 0 0 52,34 20,20 0 0 0 32,14 Z m 0,4 A 16,16.002476 0 0 1 48,34.001953 16,16.002476 0 0 1 32,50.005859 16,16.002476 0 0 1 16,34.001953 16,16.002476 0 0 1 32,18 Z" />
  <g
     inkscape:groupmode="layer"
     id="layer5"
     inkscape:label="R"
     transform="translate(-0.2383301,0.76658407)"
     style="display:inline">
    <path
       id="rect9938"
       style="display:inline;fill:#ffffff;fill-opacity:1;fill-rule:evenodd;stroke:none;stroke-width:4.0182;stroke-linecap:square;stroke-linejoin:round;stroke-miterlimit:0"
       d="m 26,26 v 12 4 h 4 V 38 H 32.345703 33 34 l 2,4 h 4 L 37.113281,36.375 C 38.275819,35.28207 39,33.72891 39,32 39,28.676006 36.323994,26 33,26 h -0.654297 z m 4,4 H 32 32.244141 33 c 1.107998,0 2,0.892002 2,2 0,1.107998 -0.892002,2 -2,2 H 32.244141 32 30 v -2 z"
       transform="translate(0.2383301,-0.76658407)" />
  </g>
</svg>
