<?xml version="1.0" encoding="UTF-8" standalone="no"?>
<svg
   id="Layer_1"
   data-name="Layer 1"
   width="88.93"
   height="121.8"
   viewBox="0 0 88.93 121.8"
   version="1.1"
   sodipodi:docname="trigger.svg"
   inkscape:version="1.2.2 (732a01da63, 2022-12-09)"
   xmlns:inkscape="http://www.inkscape.org/namespaces/inkscape"
   xmlns:sodipodi="http://sodipodi.sourceforge.net/DTD/sodipodi-0.dtd"
   xmlns="http://www.w3.org/2000/svg"
   xmlns:svg="http://www.w3.org/2000/svg">
  <sodipodi:namedview
     id="namedview10283"
     pagecolor="#ffffff"
     bordercolor="#000000"
     borderopacity="0.25"
     inkscape:showpageshadow="2"
     inkscape:pageopacity="0.0"
     inkscape:pagecheckerboard="0"
     inkscape:deskcolor="#d1d1d1"
     showgrid="false"
     inkscape:zoom="6.6830869"
     inkscape:cx="44.81462"
     inkscape:cy="85.215112"
     inkscape:window-width="1920"
     inkscape:window-height="1001"
     inkscape:window-x="-9"
     inkscape:window-y="-9"
     inkscape:window-maximized="1"
     inkscape:current-layer="Layer_1" />
  <defs
     id="defs10273">
    <style
       id="style10271">
      .cls-1 {
        fill: #e5e5e5;
      }

      .cls-2 {
        fill: #ebebeb;
      }
    </style>
  </defs>
  <g
     id="LT_Pressed"
     data-name="LT Pressed"
     style="display:none">
    <path
       class="cls-1"
       d="m 74.75,56.08 v -0.67 a 5.91,5.91 0 0 1 0,0.67 z"
       id="path10275" />
    <path
       class="cls-1"
       d="m 49.72,5.47 c 0.4,-0.32 0.8,-0.62 1.21,-0.9 l 2.32,110 L 0,121.79 C 12.07,5 43,10.76 49.72,5.47 Z"
       id="path10277"
       style="fill:#27c9d6;fill-opacity:1" />
    <path
       class="cls-2"
       d="m 76.74,0.14 c 10.83,0.41 12.07,11.44 12.19,15.19 v 1.23 a 819.52,819.52 0 0 0 0,93.09 C 79,111.94 50.39,115 50.39,115 c 0,0 0,-20.91 -0.68,-50.6 C 48.9,26.9 50.93,4.62 50.93,4.62 57.34,0.09 64.49,-0.31 76.74,0.14 Z"
       id="path10279"
       style="fill:#53d5e1;fill-opacity:1" />
  </g>
  <rect
     style="fill:#cbcbcb;fill-opacity:1;stroke:#cbcbcb;stroke-width:2.28072;stroke-dasharray:none;stroke-opacity:1"
     id="rect52064-2-2"
     width="86.719284"
     height="27.719278"
     x="1.1403608"
     y="93.140358"
     ry="7.4658465" />
</svg>
