<?xml version="1.0" encoding="UTF-8"?>
<svg id="Layer_2" data-name="Layer 2" xmlns="http://www.w3.org/2000/svg" width="34.33" height="55.32" viewBox="0 0 34.33 55.32">
  <defs>
    <style>
      .cls-1 {
        fill: #d6d6d6;
      }

      .cls-1, .cls-2, .cls-3, .cls-4, .cls-5 {
        stroke-width: 0px;
      }

      .cls-2 {
        fill: #dbdbdb;
      }

      .cls-3 {
        fill: #edf4f4;
      }

      .cls-4 {
        fill: #e3e3e3;
      }

      .cls-5 {
        fill: #ebebeb;
      }
    </style>
  </defs>
  <g id="Layer_1-2" data-name="Layer 1">
    <g id="Up">
      <g>
        <path class="cls-5" d="m4.1,41.56V7.34s0-.09,0-.14l.08-.19.08-.13c.49-.81,2.1-1.52,4.53-2l.88-.21c.33-.07.66-.12,1-.14h.16l.84-.14,1-.1,1-.09,2.37-.07h1c7.32,0,13.06,1.42,13.06,3.23v34.2l-12.94,13.05-13.06-13.05Z"/>
        <path class="cls-3" d="m17.16,4.61c8.09,0,12.57,1.62,12.57,2.73v34l-12.57,12.57-12.56-12.56V7.35h0v-.14h0c.16-.25.91-1.11,4.19-1.76h.06l.83-.17h.09c.33-.06.59-.09.79-.11h.19l.92-.12h0l1-.11h0l1-.08h3.38m0-1h-3.38l-1,.09h0l-1,.11h0l-1-.05h-.06c-.32,0-.64.08-.94.13h-.07c-.3,0-.6.11-.88.18h0c-2.42.47-4.25,1.21-4.86,2.22-.05.05-.08.11-.11.17h0v.18c0,.06,0,0,0,0v.15c0,.07,0,.14,0,.21v34.52l13.41,13.55,13.57-13.55V7.34h0c0-2.5-6.8-3.73-13.57-3.73l-.11.25Z"/>
      </g>
      <path class="cls-2" d="m8.67,4.36h0l.88-.19h.12c.3-.05.62-.1.94-.13h.06l1-.13h0l1-.11h0l1-.08h3.49c6.77,0,13.56,1.23,13.56,3.73l2.75-2.77c-.89-1.48-2.7-2.82-6.13-3.67C24,.28,20.58-.05,17.16,0c-3.42-.06-6.84.27-10.18,1-2.93.71-4.71,1.79-5.72,3l2.57,2.57c.62-1.01,2.44-1.75,4.84-2.22Z"/>
      <path class="cls-4" d="m30.73,7.34h0v34.43l3.6-3.63V7.34c0-.99-.3-1.95-.85-2.77l-2.75,2.77Z"/>
      <path class="cls-1" d="m3.6,7.34c0-.07,0-.14,0-.21.02-.04.04-.08.07-.12h0v-.18h0c.02-.06.06-.11.1-.16l-2.51-2.66C.44,4.92,0,6.11,0,7.34v30.81l3.6,3.62V7.34Z"/>
    </g>
  </g>
</svg>